# Blender 5.1.1
# www.blender.org
mtllib snotter2.mtl
o Sleave
v 0.195090 -1.000000 -1.022870
v 0.195090 1.000000 -1.022870
v 0.382683 -1.000000 -0.965413
v 0.382683 1.000000 -0.965413
v 0.555570 -1.000000 -0.872106
v 0.555570 1.000000 -0.872106
v 0.707107 -1.000000 -0.746537
v 0.707107 1.000000 -0.746537
v 0.831470 -1.000000 -0.593531
v 0.831470 1.000000 -0.593531
v 0.923880 -1.000000 -0.418967
v 0.923880 1.000000 -0.418967
v 0.980785 -1.000000 -0.229554
v 0.980785 1.000000 -0.229554
v 1.000000 -1.000000 -0.032571
v 1.000000 1.000000 -0.032571
v 0.980785 -1.000000 0.164412
v 0.980785 1.000000 0.164412
v 0.923880 -1.000000 0.353825
v 0.923880 1.000000 0.353825
v 0.831470 -1.000000 0.528389
v 0.831470 1.000000 0.528389
v 0.707107 -1.000000 0.681395
v 0.707107 1.000000 0.681395
v 0.555570 -1.000000 0.806964
v 0.555570 1.000000 0.806964
v 0.382683 -1.000000 0.900271
v 0.382683 1.000000 0.900271
v 0.195090 -1.000000 0.957728
v 0.195090 1.000000 0.957728
v 0.000000 -1.000000 0.977130
v 0.000000 1.000000 0.977130
v -0.195090 -1.000000 0.957728
v -0.195090 1.000000 0.957728
v -0.382683 -1.000000 0.900271
v -0.382683 1.000000 0.900271
v -0.555570 -1.000000 0.806964
v -0.555570 1.000000 0.806964
v -0.707107 -1.000000 0.681395
v -0.707107 1.000000 0.681395
v -0.831470 -1.000000 0.528389
v -0.831470 1.000000 0.528389
v -0.923880 -1.000000 0.353825
v -0.923880 1.000000 0.353825
v -0.980785 -1.000000 0.164412
v -0.980785 1.000000 0.164412
v -1.000000 -1.000000 -0.032571
v -1.000000 1.000000 -0.032571
v -0.980785 -1.000000 -0.229554
v -0.980785 1.000000 -0.229554
v -0.923880 -1.000000 -0.418967
v -0.923880 1.000000 -0.418967
v -0.831470 -1.000000 -0.593531
v -0.831470 1.000000 -0.593531
v -0.707107 -1.000000 -0.746537
v -0.707107 1.000000 -0.746537
v -0.555570 -1.000000 -0.872106
v -0.555570 1.000000 -0.872106
v -0.382683 -1.000000 -0.965413
v -0.382683 1.000000 -0.965413
v -0.195090 -1.000000 -1.022870
v -0.195090 1.000000 -1.022870
v -1.100000 -0.500000 0.169369
v -1.098266 0.502510 0.170307
v -1.116760 -0.500000 -0.232713
v -1.115026 0.502510 -0.231775
v -0.900000 -0.500000 0.169369
v -0.898266 0.502510 0.170307
v -0.916759 -0.500000 -0.232713
v -0.915026 0.502510 -0.231775
v 0.166062 -1.000000 -0.926248
v 0.166062 1.000000 -0.926248
v 0.344415 -1.000000 -0.872128
v 0.344415 1.000000 -0.872128
v 0.500013 -1.000000 -0.788153
v 0.500013 1.000000 -0.788153
v 0.636396 -1.000000 -0.675141
v 0.636396 1.000000 -0.675141
v 0.748323 -1.000000 -0.537435
v 0.748323 1.000000 -0.537435
v 0.831492 -1.000000 -0.380327
v 0.831492 1.000000 -0.380327
v 0.882707 -1.000000 -0.209856
v 0.882707 1.000000 -0.209856
v 0.900000 -1.000000 -0.032571
v 0.900000 1.000000 -0.032571
v 0.882707 -1.000000 0.144714
v 0.882707 1.000000 0.144714
v 0.831492 -1.000000 0.315185
v 0.831492 1.000000 0.315185
v 0.748323 -1.000000 0.472293
v 0.748323 1.000000 0.472293
v 0.636396 -1.000000 0.609998
v 0.636396 1.000000 0.609998
v 0.500013 -1.000000 0.723011
v 0.500013 1.000000 0.723011
v 0.344415 -1.000000 0.806987
v 0.344415 1.000000 0.806987
v 0.175581 -1.000000 0.858699
v 0.175581 1.000000 0.858699
v 0.000000 -1.000000 0.876160
v 0.000000 1.000000 0.876160
v -0.175581 -1.000000 0.858699
v -0.175581 1.000000 0.858699
v -0.344415 -1.000000 0.806987
v -0.344415 1.000000 0.806987
v -0.500013 -1.000000 0.723011
v -0.500013 1.000000 0.723011
v -0.636396 -1.000000 0.609998
v -0.636396 1.000000 0.609998
v -0.748323 -1.000000 0.472293
v -0.748323 1.000000 0.472293
v -0.831492 -1.000000 0.315185
v -0.831492 1.000000 0.315185
v -0.882707 -1.000000 0.144714
v -0.882707 1.000000 0.144714
v -0.900000 -1.000000 -0.032571
v -0.900000 1.000000 -0.032571
v -0.882707 -1.000000 -0.209856
v -0.882707 1.000000 -0.209856
v -0.831492 -1.000000 -0.380327
v -0.831492 1.000000 -0.380327
v -0.748323 -1.000000 -0.537435
v -0.748323 1.000000 -0.537435
v -0.636396 -1.000000 -0.675141
v -0.636396 1.000000 -0.675141
v -0.500013 -1.000000 -0.788153
v -0.500013 1.000000 -0.788153
v -0.344415 -1.000000 -0.872128
v -0.344415 1.000000 -0.872128
v -0.166062 -1.000000 -0.926248
v -0.166062 1.000000 -0.926248
v -1.043543 -0.442061 0.110014
v -1.041926 0.444532 0.110877
v -1.057663 -0.442552 -0.175529
v -1.056028 0.444922 -0.174631
v -0.958997 -0.442412 0.112226
v -0.957362 0.445062 0.113124
v -0.973099 -0.442022 -0.173283
v -0.971483 0.444571 -0.172419
vn -0.3868 -0.5802 -0.7167
vn -0.3868 0.5802 -0.7167
vn 0.2798 -0.6887 -0.6689
vn 0.2798 0.6887 -0.6689
vn 0.4058 -0.6881 -0.6015
vn 0.4058 0.6881 -0.6015
vn 0.5160 -0.6875 -0.5110
vn 0.5160 0.6875 -0.5110
vn 0.6062 -0.6868 -0.4011
vn 0.6062 0.6868 -0.4011
vn 0.6730 -0.6862 -0.2761
vn 0.6730 0.6862 -0.2761
vn 0.7140 -0.6858 -0.1407
vn 0.7140 0.6858 -0.1407
vn 0.7279 -0.6857 -0.0000
vn 0.7279 0.6857 -0.0000
vn 0.7140 -0.6858 0.1407
vn 0.7140 0.6858 0.1407
vn 0.6730 -0.6862 0.2761
vn 0.6730 0.6862 0.2761
vn 0.6062 -0.6868 0.4011
vn 0.6062 0.6868 0.4011
vn 0.5160 -0.6875 0.5110
vn 0.5160 0.6875 0.5110
vn 0.4058 -0.6881 0.6015
vn 0.4058 0.6881 0.6015
vn 0.2798 -0.6887 0.6689
vn 0.2798 0.6887 0.6689
vn 0.1427 -0.6891 0.7105
vn 0.1427 0.6891 0.7105
vn -0.0000 -0.6892 0.7246
vn -0.0000 0.6892 0.7246
vn -0.1427 -0.6891 0.7105
vn -0.1427 0.6891 0.7105
vn -0.2798 -0.6887 0.6689
vn -0.2798 0.6887 0.6689
vn -0.4058 -0.6881 0.6015
vn -0.4058 0.6881 0.6015
vn -0.5160 -0.6875 0.5110
vn -0.5160 0.6875 0.5110
vn -0.6062 -0.6868 0.4011
vn -0.6062 0.6868 0.4011
vn -0.6730 -0.6862 0.2761
vn -0.6730 0.6862 0.2761
vn -0.7140 -0.6858 0.1407
vn -0.7140 0.6858 0.1407
vn -0.7279 -0.6857 -0.0000
vn -0.7279 0.6857 -0.0000
vn -0.7140 -0.6858 -0.1407
vn -0.7140 0.6858 -0.1407
vn -0.6730 -0.6862 -0.2761
vn -0.6730 0.6862 -0.2761
vn -0.6062 -0.6868 -0.4011
vn -0.6062 0.6868 -0.4011
vn -0.5160 -0.6875 -0.5110
vn -0.5160 0.6875 -0.5110
vn -0.4058 -0.6881 -0.6015
vn -0.4058 0.6881 -0.6015
vn -0.2798 -0.6887 -0.6689
vn -0.2798 0.6887 -0.6689
vn 0.3868 -0.5802 -0.7167
vn 0.3868 0.5802 -0.7167
vn -0.5664 -0.5813 0.5841
vn -0.5653 0.5817 0.5849
vn -0.5928 -0.5762 -0.5626
vn -0.5918 0.5777 -0.5622
vn 0.5918 -0.5777 0.5622
vn 0.5928 0.5762 0.5626
vn 0.5653 -0.5817 -0.5849
vn 0.5664 0.5813 -0.5841
vn -0.7207 -0.5780 0.3827
vn -0.7207 0.5780 0.3827
vn -0.2617 -0.7329 0.6279
vn -0.2617 0.7329 0.6279
vn -0.3810 -0.7321 0.5647
vn -0.3810 0.7321 0.5647
vn -0.4845 -0.7315 0.4798
vn -0.4845 0.7315 0.4798
vn -0.5692 -0.7308 0.3767
vn -0.5692 0.7308 0.3767
vn -0.6320 -0.7303 0.2593
vn -0.6320 0.7303 0.2593
vn -0.6706 -0.7300 0.1321
vn -0.6706 0.7300 0.1321
vn -0.6836 -0.7298 -0.0000
vn -0.6836 0.7298 -0.0000
vn -0.6706 -0.7300 -0.1321
vn -0.6706 0.7300 -0.1321
vn -0.6320 -0.7303 -0.2593
vn -0.6320 0.7303 -0.2593
vn -0.5692 -0.7308 -0.3767
vn -0.5692 0.7308 -0.3767
vn -0.4845 -0.7315 -0.4798
vn -0.4845 0.7315 -0.4798
vn -0.3810 -0.7321 -0.5647
vn -0.3810 0.7321 -0.5647
vn -0.2626 -0.7326 -0.6279
vn -0.2626 0.7326 -0.6279
vn -0.1339 -0.7330 -0.6669
vn -0.1339 0.7330 -0.6669
vn -0.0000 -0.7331 -0.6801
vn -0.0000 0.7331 -0.6801
vn 0.1339 -0.7330 -0.6669
vn 0.1339 0.7330 -0.6669
vn 0.2626 -0.7326 -0.6279
vn 0.2626 0.7326 -0.6279
vn 0.3810 -0.7321 -0.5647
vn 0.3810 0.7321 -0.5647
vn 0.4845 -0.7315 -0.4798
vn 0.4845 0.7315 -0.4798
vn 0.5692 -0.7308 -0.3767
vn 0.5692 0.7308 -0.3767
vn 0.6320 -0.7303 -0.2593
vn 0.6320 0.7303 -0.2593
vn 0.6706 -0.7300 -0.1321
vn 0.6706 0.7300 -0.1321
vn 0.6836 -0.7298 -0.0000
vn 0.6836 0.7298 -0.0000
vn 0.6706 -0.7300 0.1321
vn 0.6706 0.7300 0.1321
vn 0.6320 -0.7303 0.2593
vn 0.6320 0.7303 0.2593
vn 0.5692 -0.7308 0.3767
vn 0.5692 0.7308 0.3767
vn 0.4845 -0.7315 0.4798
vn 0.4845 0.7315 0.4798
vn 0.3810 -0.7321 0.5647
vn 0.3810 0.7321 0.5647
vn 0.2617 -0.7329 0.6279
vn 0.2617 0.7329 0.6279
vn 0.7207 -0.5780 0.3827
vn 0.7207 0.5780 0.3827
vn 0.5704 0.5825 -0.5790
vn 0.5697 -0.5825 -0.5798
vn 0.5885 0.5757 0.5676
vn 0.5880 -0.5765 0.5674
vn -0.5880 0.5765 -0.5674
vn -0.5885 -0.5757 -0.5676
vn -0.5697 0.5825 0.5798
vn -0.5704 -0.5825 0.5790
vt 0.968750 0.500000
vt 0.968750 1.000000
vt 0.937500 1.000000
vt 0.937500 0.500000
vt 0.906250 1.000000
vt 0.906250 0.500000
vt 0.875000 1.000000
vt 0.875000 0.500000
vt 0.843750 1.000000
vt 0.843750 0.500000
vt 0.812500 1.000000
vt 0.812500 0.500000
vt 0.781250 1.000000
vt 0.781250 0.500000
vt 0.750000 1.000000
vt 0.750000 0.500000
vt 0.718750 1.000000
vt 0.718750 0.500000
vt 0.687500 1.000000
vt 0.687500 0.500000
vt 0.656250 1.000000
vt 0.656250 0.500000
vt 0.625000 1.000000
vt 0.625000 0.500000
vt 0.593750 1.000000
vt 0.593750 0.500000
vt 0.562500 1.000000
vt 0.562500 0.500000
vt 0.531250 1.000000
vt 0.531250 0.500000
vt 0.500000 1.000000
vt 0.500000 0.500000
vt 0.468750 1.000000
vt 0.468750 0.500000
vt 0.437500 1.000000
vt 0.437500 0.500000
vt 0.406250 1.000000
vt 0.406250 0.500000
vt 0.375000 1.000000
vt 0.375000 0.500000
vt 0.343750 1.000000
vt 0.343750 0.500000
vt 0.312500 1.000000
vt 0.312500 0.500000
vt 0.281250 1.000000
vt 0.281250 0.500000
vt 0.250000 1.000000
vt 0.250000 0.500000
vt 0.218750 1.000000
vt 0.218750 0.500000
vt 0.187500 1.000000
vt 0.187500 0.500000
vt 0.156250 1.000000
vt 0.156250 0.500000
vt 0.125000 1.000000
vt 0.125000 0.500000
vt 0.093750 1.000000
vt 0.093750 0.500000
vt 0.062500 1.000000
vt 0.062500 0.500000
vt 0.031250 1.000000
vt 0.031250 0.500000
vt 0.375000 0.000000
vt 0.625000 0.000000
vt 0.625000 0.250000
vt 0.375000 0.250000
vt 0.625000 0.750000
vt 0.375000 0.750000
vt 0.125000 0.750000
vt 0.875000 0.750000
s 1
usemtl DarkWood
f 63/63/63 64/64/64 66/65/66 65/66/65
f 65/66/65 66/65/66 70/24/70 69/40/69
f 67/68/67 68/67/68 64/23/64 63/39/63
f 65/56/65 69/40/69 67/68/67 63/69/63
f 70/24/70 66/8/66 64/70/64 68/67/68
f 133/63/133 135/66/135 136/65/136 134/64/134
f 135/66/135 139/40/139 140/24/140 136/65/136
f 137/68/137 133/39/133 134/23/134 138/67/138
f 135/56/135 133/69/133 137/68/137 139/40/139
f 140/24/140 138/67/138 134/70/134 136/8/136
usemtl Metal
f 1/1/1 2/2/2 4/3/4 3/4/3
f 3/4/3 4/3/4 6/5/6 5/6/5
f 5/6/5 6/5/6 8/7/8 7/8/7
f 7/8/7 8/7/8 10/9/10 9/10/9
f 9/10/9 10/9/10 12/11/12 11/12/11
f 11/12/11 12/11/12 14/13/14 13/14/13
f 13/14/13 14/13/14 16/15/16 15/16/15
f 15/16/15 16/15/16 18/17/18 17/18/17
f 17/18/17 18/17/18 20/19/20 19/20/19
f 19/20/19 20/19/20 22/21/22 21/22/21
f 21/22/21 22/21/22 24/23/24 23/24/23
f 23/24/23 24/23/24 26/25/26 25/26/25
f 25/26/25 26/25/26 28/27/28 27/28/27
f 27/28/27 28/27/28 30/29/30 29/30/29
f 29/30/29 30/29/30 32/31/32 31/32/31
f 31/32/31 32/31/32 34/33/34 33/34/33
f 33/34/33 34/33/34 36/35/36 35/36/35
f 35/36/35 36/35/36 38/37/38 37/38/37
f 37/38/37 38/37/38 40/39/40 39/40/39
f 39/40/39 40/39/40 42/41/42 41/42/41
f 41/42/41 42/41/42 44/43/44 43/44/43
f 43/44/43 44/43/44 46/45/46 45/46/45
f 45/46/45 46/45/46 48/47/48 47/48/47
f 47/48/47 48/47/48 50/49/50 49/50/49
f 49/50/49 50/49/50 52/51/52 51/52/51
f 51/52/51 52/51/52 54/53/54 53/54/53
f 53/54/53 54/53/54 56/55/56 55/56/55
f 55/56/55 56/55/56 58/57/58 57/58/57
f 57/58/57 58/57/58 60/59/60 59/60/59
f 59/60/59 60/59/60 62/61/62 61/62/61
f 69/40/69 70/24/70 68/67/68 67/68/67
f 71/1/71 73/4/73 74/3/74 72/2/72
f 73/4/73 75/6/75 76/5/76 74/3/74
f 75/6/75 77/8/77 78/7/78 76/5/76
f 77/8/77 79/10/79 80/9/80 78/7/78
f 79/10/79 81/12/81 82/11/82 80/9/80
f 81/12/81 83/14/83 84/13/84 82/11/82
f 83/14/83 85/16/85 86/15/86 84/13/84
f 85/16/85 87/18/87 88/17/88 86/15/86
f 87/18/87 89/20/89 90/19/90 88/17/88
f 89/20/89 91/22/91 92/21/92 90/19/90
f 91/22/91 93/24/93 94/23/94 92/21/92
f 93/24/93 95/26/95 96/25/96 94/23/94
f 95/26/95 97/28/97 98/27/98 96/25/96
f 97/28/97 99/30/99 100/29/100 98/27/98
f 99/30/99 101/32/101 102/31/102 100/29/100
f 101/32/101 103/34/103 104/33/104 102/31/102
f 103/34/103 105/36/105 106/35/106 104/33/104
f 105/36/105 107/38/107 108/37/108 106/35/106
f 107/38/107 109/40/109 110/39/110 108/37/108
f 109/40/109 111/42/111 112/41/112 110/39/110
f 111/42/111 113/44/113 114/43/114 112/41/112
f 113/44/113 115/46/115 116/45/116 114/43/114
f 115/46/115 117/48/117 118/47/118 116/45/116
f 117/48/117 119/50/119 120/49/120 118/47/118
f 119/50/119 121/52/121 122/51/122 120/49/120
f 121/52/121 123/54/123 124/53/124 122/51/122
f 123/54/123 125/56/125 126/55/126 124/53/124
f 125/56/125 127/58/127 128/57/128 126/55/126
f 127/58/127 129/60/129 130/59/130 128/57/128
f 129/60/129 131/62/131 132/61/132 130/59/130
f 139/40/139 137/68/137 138/67/138 140/24/140
f 2/2/2 1/1/1 71/1/71 72/2/72
f 1/1/1 3/4/3 73/4/73 71/1/71
f 4/3/4 2/2/2 72/2/72 74/3/74
f 3/4/3 5/6/5 75/6/75 73/4/73
f 6/5/6 4/3/4 74/3/74 76/5/76
f 5/6/5 7/8/7 77/8/77 75/6/75
f 8/7/8 6/5/6 76/5/76 78/7/78
f 7/8/7 9/10/9 79/10/79 77/8/77
f 10/9/10 8/7/8 78/7/78 80/9/80
f 9/10/9 11/12/11 81/12/81 79/10/79
f 12/11/12 10/9/10 80/9/80 82/11/82
f 11/12/11 13/14/13 83/14/83 81/12/81
f 14/13/14 12/11/12 82/11/82 84/13/84
f 13/14/13 15/16/15 85/16/85 83/14/83
f 16/15/16 14/13/14 84/13/84 86/15/86
f 15/16/15 17/18/17 87/18/87 85/16/85
f 18/17/18 16/15/16 86/15/86 88/17/88
f 17/18/17 19/20/19 89/20/89 87/18/87
f 20/19/20 18/17/18 88/17/88 90/19/90
f 19/20/19 21/22/21 91/22/91 89/20/89
f 22/21/22 20/19/20 90/19/90 92/21/92
f 21/22/21 23/24/23 93/24/93 91/22/91
f 24/23/24 22/21/22 92/21/92 94/23/94
f 23/24/23 25/26/25 95/26/95 93/24/93
f 26/25/26 24/23/24 94/23/94 96/25/96
f 25/26/25 27/28/27 97/28/97 95/26/95
f 28/27/28 26/25/26 96/25/96 98/27/98
f 27/28/27 29/30/29 99/30/99 97/28/97
f 30/29/30 28/27/28 98/27/98 100/29/100
f 29/30/29 31/32/31 101/32/101 99/30/99
f 32/31/32 30/29/30 100/29/100 102/31/102
f 31/32/31 33/34/33 103/34/103 101/32/101
f 34/33/34 32/31/32 102/31/102 104/33/104
f 33/34/33 35/36/35 105/36/105 103/34/103
f 36/35/36 34/33/34 104/33/104 106/35/106
f 35/36/35 37/38/37 107/38/107 105/36/105
f 38/37/38 36/35/36 106/35/106 108/37/108
f 37/38/37 39/40/39 109/40/109 107/38/107
f 40/39/40 38/37/38 108/37/108 110/39/110
f 39/40/39 41/42/41 111/42/111 109/40/109
f 42/41/42 40/39/40 110/39/110 112/41/112
f 41/42/41 43/44/43 113/44/113 111/42/111
f 44/43/44 42/41/42 112/41/112 114/43/114
f 43/44/43 45/46/45 115/46/115 113/44/113
f 46/45/46 44/43/44 114/43/114 116/45/116
f 45/46/45 47/48/47 117/48/117 115/46/115
f 48/47/48 46/45/46 116/45/116 118/47/118
f 47/48/47 49/50/49 119/50/119 117/48/117
f 50/49/50 48/47/48 118/47/118 120/49/120
f 49/50/49 51/52/51 121/52/121 119/50/119
f 52/51/52 50/49/50 120/49/120 122/51/122
f 51/52/51 53/54/53 123/54/123 121/52/121
f 54/53/54 52/51/52 122/51/122 124/53/124
f 53/54/53 55/56/55 125/56/125 123/54/123
f 56/55/56 54/53/54 124/53/124 126/55/126
f 55/56/55 57/58/57 127/58/127 125/56/125
f 58/57/58 56/55/56 126/55/126 128/57/128
f 57/58/57 59/60/59 129/60/129 127/58/127
f 60/59/60 58/57/58 128/57/128 130/59/130
f 59/60/59 61/62/61 131/62/131 129/60/129
f 62/61/62 60/59/60 130/59/130 132/61/132
f 61/62/61 62/61/62 132/61/132 131/62/131
o Mounting
v 1.190000 -1.175000 -0.075038
v 1.210000 -1.175000 -0.075038
v 1.190000 -1.325000 -0.075038
v 1.210000 -1.325000 -0.075038
v 1.190000 -1.175000 0.074962
v 1.210000 -1.175000 0.074962
v 1.190000 -1.325000 0.074962
v 1.210000 -1.325000 0.074962
v 1.211022 -1.220565 -0.029735
v 1.231022 -1.220565 -0.029735
v 1.211022 -1.280565 -0.029735
v 1.231022 -1.280565 -0.029735
v 1.211022 -1.220565 0.030265
v 1.231022 -1.220565 0.030265
v 1.211022 -1.280565 0.030265
v 1.231022 -1.280565 0.030265
v 0.000000 -1.500000 -1.200038
v 0.000000 -1.000000 -1.200038
v 0.234109 -1.500000 -1.176980
v 0.234108 -1.000000 -1.176980
v 0.459220 -1.500000 -1.108693
v 0.459220 -1.000000 -1.108693
v 0.666684 -1.500000 -0.997801
v 0.666684 -1.000000 -0.997801
v 0.848528 -1.500000 -0.848566
v 0.848528 -1.000000 -0.848566
v 0.997764 -1.500000 -0.666722
v 0.997764 -1.000000 -0.666722
v 1.108656 -1.500000 -0.459258
v 1.108656 -1.000000 -0.459258
v 1.176942 -1.500000 -0.234146
v 1.176942 -1.000000 -0.234146
v 1.200000 -1.500000 -0.000038
v 1.200000 -1.000000 -0.000038
v 1.176942 -1.500000 0.234071
v 1.176942 -1.000000 0.234071
v 1.108656 -1.500000 0.459182
v 1.108656 -1.000000 0.459182
v 0.997764 -1.500000 0.666647
v 0.997764 -1.000000 0.666647
v 0.848528 -1.500000 0.848490
v 0.848528 -1.000000 0.848490
v 0.666684 -1.500000 0.997726
v 0.666684 -1.000000 0.997726
v 0.459220 -1.500000 1.108618
v 0.459220 -1.000000 1.108618
v 0.234108 -1.500000 1.176905
v 0.234109 -1.000000 1.176905
v 0.000000 -1.500000 1.199962
v 0.000000 -1.000000 1.199962
v -0.234108 -1.500000 1.176905
v -0.234108 -1.000000 1.176905
v -0.459220 -1.500000 1.108618
v -0.459220 -1.000000 1.108618
v -0.666684 -1.500000 0.997726
v -0.666684 -1.000000 0.997726
v -0.848528 -1.500000 0.848490
v -0.848528 -1.000000 0.848490
v -0.997764 -1.500000 0.666647
v -0.997764 -1.000000 0.666647
v -1.108655 -1.500000 0.459182
v -1.108655 -1.000000 0.459182
v -1.176942 -1.500000 0.234071
v -1.176942 -1.000000 0.234071
v -1.200000 -1.500000 -0.000038
v -1.200000 -1.000000 -0.000038
v -1.176942 -1.500000 -0.234146
v -1.176942 -1.000000 -0.234146
v -1.108655 -1.500000 -0.459258
v -1.108655 -1.000000 -0.459258
v -0.997763 -1.500000 -0.666722
v -0.997764 -1.000000 -0.666722
v -0.848528 -1.500000 -0.848566
v -0.848528 -1.000000 -0.848566
v -0.666684 -1.500000 -0.997801
v -0.666684 -1.000000 -0.997801
v -0.459220 -1.500000 -1.108693
v -0.459220 -1.000000 -1.108693
v -0.234108 -1.500000 -1.176980
v -0.234108 -1.000000 -1.176980
v -1.190000 -1.325000 -0.075038
v -1.210000 -1.325000 -0.075038
v -1.190000 -1.175000 -0.075038
v -1.210000 -1.175000 -0.075038
v -1.190000 -1.325000 0.074962
v -1.210000 -1.325000 0.074962
v -1.190000 -1.175000 0.074962
v -1.210000 -1.175000 0.074962
v -1.211022 -1.279435 -0.029735
v -1.231022 -1.279435 -0.029735
v -1.211022 -1.219435 -0.029735
v -1.231022 -1.219435 -0.029735
v -1.211022 -1.279435 0.030265
v -1.231022 -1.279435 0.030265
v -1.211022 -1.219435 0.030265
v -1.231022 -1.219435 0.030265
v 0.075000 -1.175000 1.189962
v 0.075000 -1.175000 1.209962
v 0.075000 -1.325000 1.189962
v 0.075000 -1.325000 1.209962
v -0.075000 -1.175000 1.189962
v -0.075000 -1.175000 1.209962
v -0.075000 -1.325000 1.189962
v -0.075000 -1.325000 1.209962
v 0.029698 -1.220565 1.210985
v 0.029698 -1.220565 1.230985
v 0.029698 -1.280565 1.210985
v 0.029698 -1.280565 1.230985
v -0.030302 -1.220565 1.210985
v -0.030302 -1.220565 1.230985
v -0.030302 -1.280565 1.210985
v -0.030302 -1.280565 1.230985
v -0.075000 -1.175000 -1.190038
v -0.075000 -1.175000 -1.210038
v -0.075000 -1.325000 -1.190038
v -0.075000 -1.325000 -1.210038
v 0.075000 -1.175000 -1.190038
v 0.075000 -1.175000 -1.210038
v 0.075000 -1.325000 -1.190038
v 0.075000 -1.325000 -1.210038
v -0.029698 -1.220565 -1.211060
v -0.029698 -1.220565 -1.231060
v -0.029698 -1.280565 -1.211060
v -0.029698 -1.280565 -1.231060
v 0.030302 -1.220565 -1.211060
v 0.030302 -1.220565 -1.231060
v 0.030302 -1.280565 -1.211060
v 0.030302 -1.280565 -1.231060
v 0.075000 -1.175000 1.209962
v 0.075000 -1.325000 1.209962
v -0.075000 -1.175000 1.209962
v -0.075000 -1.325000 1.209962
vn -0.7878 0.3649 -0.4961
vn 0.7878 0.3649 -0.4961
vn -0.7878 -0.3649 -0.4961
vn 0.7878 -0.3649 -0.4961
vn -0.7878 0.3649 0.4961
vn 0.7878 0.3649 0.4961
vn -0.7878 -0.3649 0.4961
vn 0.7878 -0.3649 0.4961
vn -0.0000 -0.5778 -0.8162
vn -0.0000 0.5778 -0.8162
vn 0.1608 -0.5730 -0.8036
vn 0.1608 0.5730 -0.8036
vn 0.3192 -0.5584 -0.7657
vn 0.3192 0.5584 -0.7657
vn 0.4718 -0.5346 -0.7011
vn 0.4718 0.5346 -0.7011
vn 0.6139 -0.5025 -0.6088
vn 0.6139 0.5025 -0.6088
vn 0.7383 -0.4651 -0.4884
vn 0.7383 0.4651 -0.4884
vn 0.8364 -0.4281 -0.3423
vn 0.8364 0.4281 -0.3423
vn 0.8994 -0.3999 -0.1765
vn 0.8994 0.3999 -0.1765
vn 0.9211 -0.3892 -0.0000
vn 0.9211 0.3892 -0.0000
vn 0.8994 -0.3999 0.1765
vn 0.8994 0.3999 0.1765
vn 0.8364 -0.4281 0.3423
vn 0.8364 0.4281 0.3423
vn 0.7383 -0.4651 0.4884
vn 0.7383 0.4651 0.4884
vn 0.6139 -0.5025 0.6088
vn 0.6139 0.5025 0.6088
vn 0.4718 -0.5346 0.7011
vn 0.4718 0.5346 0.7011
vn 0.3192 -0.5584 0.7657
vn 0.3192 0.5584 0.7657
vn 0.1608 -0.5730 0.8036
vn 0.1608 0.5730 0.8036
vn -0.0000 -0.5778 0.8162
vn -0.0000 0.5778 0.8162
vn -0.1608 -0.5730 0.8036
vn -0.1608 0.5730 0.8036
vn -0.3192 -0.5584 0.7657
vn -0.3192 0.5584 0.7657
vn -0.4718 -0.5346 0.7011
vn -0.4718 0.5346 0.7011
vn -0.6139 -0.5025 0.6088
vn -0.6139 0.5025 0.6088
vn -0.7383 -0.4651 0.4884
vn -0.7383 0.4651 0.4884
vn -0.8364 -0.4281 0.3423
vn -0.8364 0.4281 0.3423
vn -0.8994 -0.3999 0.1765
vn -0.8994 0.3999 0.1765
vn -0.9211 -0.3892 -0.0000
vn -0.9211 0.3892 -0.0000
vn -0.8994 -0.3999 -0.1765
vn -0.8994 0.3999 -0.1765
vn -0.8364 -0.4281 -0.3423
vn -0.8364 0.4281 -0.3423
vn -0.7383 -0.4651 -0.4884
vn -0.7383 0.4651 -0.4884
vn -0.6139 -0.5025 -0.6088
vn -0.6139 0.5025 -0.6088
vn -0.4718 -0.5346 -0.7011
vn -0.4718 0.5346 -0.7011
vn -0.3192 -0.5584 -0.7657
vn -0.3192 0.5584 -0.7657
vn -0.1608 -0.5730 -0.8036
vn -0.1608 0.5730 -0.8036
vn -0.0000 -0.0000 1.0000
vt 0.375000 0.000000
vt 0.625000 0.000000
vt 0.625000 0.250000
vt 0.375000 0.250000
vt 0.625000 0.500000
vt 0.375000 0.500000
vt 0.625000 0.750000
vt 0.375000 0.750000
vt 0.625000 1.000000
vt 0.375000 1.000000
vt 0.125000 0.500000
vt 0.125000 0.750000
vt 0.875000 0.500000
vt 0.875000 0.750000
vt 1.000000 0.500000
vt 1.000000 1.000000
vt 0.968750 1.000000
vt 0.968750 0.500000
vt 0.937500 1.000000
vt 0.937500 0.500000
vt 0.906250 1.000000
vt 0.906250 0.500000
vt 0.875000 1.000000
vt 0.843750 1.000000
vt 0.843750 0.500000
vt 0.812500 1.000000
vt 0.812500 0.500000
vt 0.781250 1.000000
vt 0.781250 0.500000
vt 0.750000 1.000000
vt 0.750000 0.500000
vt 0.718750 1.000000
vt 0.718750 0.500000
vt 0.687500 1.000000
vt 0.687500 0.500000
vt 0.656250 1.000000
vt 0.656250 0.500000
vt 0.593750 1.000000
vt 0.593750 0.500000
vt 0.562500 1.000000
vt 0.562500 0.500000
vt 0.531250 1.000000
vt 0.531250 0.500000
vt 0.500000 1.000000
vt 0.500000 0.500000
vt 0.468750 1.000000
vt 0.468750 0.500000
vt 0.437500 1.000000
vt 0.437500 0.500000
vt 0.406250 1.000000
vt 0.406250 0.500000
vt 0.343750 1.000000
vt 0.343750 0.500000
vt 0.312500 1.000000
vt 0.312500 0.500000
vt 0.281250 1.000000
vt 0.281250 0.500000
vt 0.250000 1.000000
vt 0.250000 0.500000
vt 0.218750 1.000000
vt 0.218750 0.500000
vt 0.187500 1.000000
vt 0.187500 0.500000
vt 0.156250 1.000000
vt 0.156250 0.500000
vt 0.125000 1.000000
vt 0.093750 1.000000
vt 0.093750 0.500000
vt 0.062500 1.000000
vt 0.062500 0.500000
vt 0.296822 0.485388
vt 0.250000 0.490000
vt 0.203178 0.485388
vt 0.158156 0.471731
vt 0.116663 0.449553
vt 0.080294 0.419706
vt 0.050447 0.383337
vt 0.028269 0.341844
vt 0.014612 0.296822
vt 0.010000 0.250000
vt 0.014612 0.203178
vt 0.028269 0.158156
vt 0.050447 0.116663
vt 0.080294 0.080294
vt 0.116663 0.050447
vt 0.158156 0.028269
vt 0.203178 0.014612
vt 0.250000 0.010000
vt 0.296822 0.014612
vt 0.341844 0.028269
vt 0.383337 0.050447
vt 0.419706 0.080294
vt 0.449553 0.116663
vt 0.471731 0.158156
vt 0.485388 0.203178
vt 0.490000 0.250000
vt 0.485388 0.296822
vt 0.471731 0.341844
vt 0.449553 0.383337
vt 0.419706 0.419706
vt 0.383337 0.449553
vt 0.341844 0.471731
vt 0.031250 1.000000
vt 0.031250 0.500000
vt 0.000000 1.000000
vt 0.000000 0.500000
vt 0.750000 0.490000
vt 0.796822 0.485388
vt 0.841844 0.471731
vt 0.883337 0.449553
vt 0.919706 0.419706
vt 0.949553 0.383337
vt 0.971731 0.341844
vt 0.985388 0.296822
vt 0.990000 0.250000
vt 0.985388 0.203178
vt 0.971731 0.158156
vt 0.949553 0.116663
vt 0.919706 0.080294
vt 0.883337 0.050447
vt 0.841844 0.028269
vt 0.796822 0.014612
vt 0.750000 0.010000
vt 0.703178 0.014612
vt 0.658156 0.028269
vt 0.616663 0.050447
vt 0.580294 0.080294
vt 0.550447 0.116663
vt 0.528269 0.158156
vt 0.514612 0.203178
vt 0.510000 0.250000
vt 0.514612 0.296822
vt 0.528269 0.341844
vt 0.550447 0.383337
vt 0.580294 0.419706
vt 0.616663 0.449553
vt 0.658156 0.471731
vt 0.703178 0.485388
s 1
usemtl Metal
f 141/71/141 142/72/142 144/73/144 143/74/143
f 143/74/143 144/73/144 148/75/148 147/76/147
f 147/76/147 148/75/148 146/77/146 145/78/145
f 145/78/145 146/77/146 142/79/142 141/80/141
f 148/75/148 144/83/144 142/84/142 146/77/146
f 149/71/141 150/72/142 152/73/144 151/74/143
f 151/74/143 152/73/144 156/75/148 155/76/147
f 155/76/147 156/75/148 154/77/146 153/78/145
f 153/78/145 154/77/146 150/79/142 149/80/141
f 156/75/148 152/83/144 150/84/142 154/77/146
f 221/71/144 222/72/143 224/73/141 223/74/142
f 223/74/142 224/73/141 228/75/145 227/76/146
f 227/76/146 228/75/145 226/77/147 225/78/148
f 225/78/148 226/77/147 222/79/143 221/80/144
f 228/75/145 224/83/141 222/84/143 226/77/147
f 229/71/144 230/72/143 232/73/141 231/74/142
f 231/74/142 232/73/141 236/75/145 235/76/146
f 235/76/146 236/75/145 234/77/147 233/78/148
f 233/78/148 234/77/147 230/79/143 229/80/144
f 236/75/145 232/83/141 230/84/143 234/77/147
f 239/74/144 240/73/148 244/75/147 243/76/143
f 243/76/143 244/75/147 242/77/145 241/78/141
f 241/78/141 242/77/145 238/79/146 237/80/142
f 244/75/147 240/83/148 238/84/146 242/77/145
f 245/71/142 246/72/146 248/73/148 247/74/144
f 247/74/144 248/73/148 252/75/147 251/76/143
f 251/76/143 252/75/147 250/77/145 249/78/141
f 249/78/141 250/77/145 246/79/146 245/80/142
f 252/75/147 248/83/148 246/84/146 250/77/145
f 253/71/145 254/72/141 256/73/143 255/74/147
f 255/74/147 256/73/143 260/75/144 259/76/148
f 259/76/148 260/75/144 258/77/142 257/78/146
f 257/78/146 258/77/142 254/79/141 253/80/145
f 260/75/144 256/83/143 254/84/141 258/77/142
f 263/74/147 264/73/143 268/75/144 267/76/148
f 267/76/148 268/75/144 266/77/142 265/78/146
f 265/78/146 266/77/142 262/79/141 261/80/145
f 268/75/144 264/83/143 262/84/141 266/77/142
f 272/75/213 270/83/213 269/84/213 271/77/213
usemtl DarkWood
f 143/81/143 147/76/147 145/78/145 141/82/141
f 151/81/143 155/76/147 153/78/145 149/82/141
f 157/85/149 158/86/150 160/87/152 159/88/151
f 159/88/151 160/87/152 162/89/154 161/90/153
f 161/90/153 162/89/154 164/91/156 163/92/155
f 163/92/155 164/91/156 166/93/158 165/83/157
f 165/83/157 166/93/158 168/94/160 167/95/159
f 167/95/159 168/94/160 170/96/162 169/97/161
f 169/97/161 170/96/162 172/98/164 171/99/163
f 171/99/163 172/98/164 174/100/166 173/101/165
f 173/101/165 174/100/166 176/102/168 175/103/167
f 175/103/167 176/102/168 178/104/170 177/105/169
f 177/105/169 178/104/170 180/106/172 179/107/171
f 179/107/171 180/106/172 182/79/174 181/75/173
f 181/75/173 182/79/174 184/108/176 183/109/175
f 183/109/175 184/108/176 186/110/178 185/111/177
f 185/111/177 186/110/178 188/112/180 187/113/179
f 187/113/179 188/112/180 190/114/182 189/115/181
f 189/115/181 190/114/182 192/116/184 191/117/183
f 191/117/183 192/116/184 194/118/186 193/119/185
f 193/119/185 194/118/186 196/120/188 195/121/187
f 195/121/187 196/120/188 198/80/190 197/76/189
f 197/76/189 198/80/190 200/122/192 199/123/191
f 199/123/191 200/122/192 202/124/194 201/125/193
f 201/125/193 202/124/194 204/126/196 203/127/195
f 203/127/195 204/126/196 206/128/198 205/129/197
f 205/129/197 206/128/198 208/130/200 207/131/199
f 207/131/199 208/130/200 210/132/202 209/133/201
f 209/133/201 210/132/202 212/134/204 211/135/203
f 211/135/203 212/134/204 214/136/206 213/81/205
f 213/81/205 214/136/206 216/137/208 215/138/207
f 215/138/207 216/137/208 218/139/210 217/140/209
f 160/141/152 158/142/150 220/143/212 218/144/210 216/145/208 214/146/206 212/147/204 210/148/202 208/149/200 206/150/198 204/151/196 202/152/194 200/153/192 198/154/190 196/155/188 194/156/186 192/157/184 190/158/182 188/159/180 186/160/178 184/161/176 182/162/174 180/163/172 178/164/170 176/165/168 174/166/166 172/167/164 170/168/162 168/169/160 166/170/158 164/171/156 162/172/154
f 217/140/209 218/139/210 220/173/212 219/174/211
f 219/174/211 220/173/212 158/175/150 157/176/149
f 157/177/149 159/178/151 161/179/153 163/180/155 165/181/157 167/182/159 169/183/161 171/184/163 173/185/165 175/186/167 177/187/169 179/188/171 181/189/173 183/190/175 185/191/177 187/192/179 189/193/181 191/194/183 193/195/185 195/196/187 197/197/189 199/198/191 201/199/193 203/200/195 205/201/197 207/202/199 209/203/201 211/204/203 213/205/205 215/206/207 217/207/209 219/208/211
f 223/81/142 227/76/146 225/78/148 221/82/144
f 231/81/142 235/76/146 233/78/148 229/82/144
f 237/71/142 238/72/146 240/73/148 239/74/144
f 239/81/144 243/76/143 241/78/141 237/82/142
f 247/81/144 251/76/143 249/78/141 245/82/142
f 255/81/147 259/76/148 257/78/146 253/82/145
f 261/71/145 262/72/141 264/73/143 263/74/147
f 263/81/147 267/76/148 265/78/146 261/82/145
o Bolt
v -1.680000 -0.000000 0.000000
v -1.663147 -0.000000 -0.055557
v -1.635557 -0.000000 -0.083147
v -1.599509 -0.000000 -0.098079
v -1.678078 0.003806 -0.019134
v -1.672388 0.007466 -0.037533
v -1.663147 0.010839 -0.054490
v -1.650711 0.013795 -0.069352
v -1.635557 0.016221 -0.081549
v -1.618268 0.018024 -0.090613
v -1.599509 0.019134 -0.096194
v -1.678078 0.007466 -0.018024
v -1.672388 0.014645 -0.035355
v -1.663147 0.021261 -0.051328
v -1.650711 0.027060 -0.065328
v -1.635557 0.031819 -0.076818
v -1.618268 0.035355 -0.085355
v -1.599509 0.037533 -0.090613
v -1.678078 0.010839 -0.016221
v -1.672388 0.021261 -0.031819
v -1.663147 0.030866 -0.046194
v -1.650711 0.039285 -0.058794
v -1.635557 0.046194 -0.069134
v -1.618268 0.051328 -0.076818
v -1.599509 0.054490 -0.081549
v -1.678078 0.013795 -0.013795
v -1.672388 0.027060 -0.027060
v -1.663147 0.039285 -0.039285
v -1.650711 0.050000 -0.050000
v -1.635557 0.058794 -0.058794
v -1.618268 0.065328 -0.065328
v -1.599509 0.069352 -0.069352
v -1.678078 0.016221 -0.010839
v -1.672388 0.031819 -0.021261
v -1.663147 0.046194 -0.030866
v -1.650711 0.058794 -0.039285
v -1.635557 0.069134 -0.046194
v -1.618268 0.076818 -0.051328
v -1.599509 0.081549 -0.054490
v -1.678078 0.018024 -0.007466
v -1.672388 0.035355 -0.014645
v -1.663147 0.051328 -0.021261
v -1.650711 0.065328 -0.027060
v -1.635557 0.076818 -0.031819
v -1.618268 0.085355 -0.035355
v -1.599509 0.090613 -0.037533
v -1.678078 0.019134 -0.003806
v -1.672388 0.037533 -0.007466
v -1.663147 0.054490 -0.010839
v -1.650711 0.069352 -0.013795
v -1.635557 0.081549 -0.016221
v -1.618268 0.090613 -0.018024
v -1.599509 0.096194 -0.019134
v -1.678078 0.019509 0.000000
v -1.672388 0.038268 0.000000
v -1.663147 0.055557 0.000000
v -1.650711 0.070711 -0.000000
v -1.635557 0.083147 0.000000
v -1.618268 0.092388 -0.000000
v -1.599509 0.098079 0.000000
v -1.678078 0.019134 0.003806
v -1.672388 0.037533 0.007466
v -1.663147 0.054489 0.010839
v -1.650711 0.069352 0.013795
v -1.635557 0.081549 0.016221
v -1.618268 0.090613 0.018024
v -1.599509 0.096194 0.019134
v -1.678078 0.018024 0.007466
v -1.672388 0.035355 0.014645
v -1.663147 0.051328 0.021261
v -1.650711 0.065328 0.027060
v -1.635557 0.076818 0.031819
v -1.618268 0.085355 0.035355
v -1.599509 0.090613 0.037533
v -1.678078 0.016221 0.010839
v -1.672388 0.031819 0.021261
v -1.663147 0.046194 0.030866
v -1.650711 0.058794 0.039285
v -1.635557 0.069134 0.046194
v -1.618268 0.076818 0.051328
v -1.599509 0.081549 0.054490
v -1.678078 0.013795 0.013795
v -1.672388 0.027060 0.027060
v -1.663147 0.039285 0.039285
v -1.650711 0.050000 0.050000
v -1.635557 0.058794 0.058794
v -1.618268 0.065328 0.065328
v -1.599509 0.069352 0.069352
v -1.678078 0.010839 0.016221
v -1.672388 0.021261 0.031819
v -1.663147 0.030866 0.046194
v -1.650711 0.039285 0.058794
v -1.635557 0.046194 0.069134
v -1.618268 0.051328 0.076818
v -1.599509 0.054489 0.081549
v -1.678078 0.007466 0.018024
v -1.672388 0.014645 0.035355
v -1.663147 0.021261 0.051328
v -1.650711 0.027060 0.065328
v -1.635557 0.031819 0.076818
v -1.618268 0.035355 0.085355
v -1.599509 0.037533 0.090613
v -1.678078 0.003806 0.019134
v -1.672388 0.007466 0.037533
v -1.663147 0.010839 0.054489
v -1.650711 0.013795 0.069352
v -1.635557 0.016221 0.081549
v -1.618268 0.018024 0.090613
v -1.599509 0.019134 0.096194
v -1.678078 -0.000000 0.019509
v -1.672388 -0.000000 0.038268
v -1.663147 -0.000000 0.055557
v -1.650711 -0.000000 0.070711
v -1.635557 -0.000000 0.083147
v -1.618268 0.000000 0.092388
v -1.599509 -0.000000 0.098078
v -1.678078 -0.003806 0.019134
v -1.672388 -0.007466 0.037533
v -1.663147 -0.010839 0.054489
v -1.650711 -0.013795 0.069352
v -1.635557 -0.016221 0.081549
v -1.618268 -0.018024 0.090613
v -1.599509 -0.019134 0.096194
v -1.678078 -0.007466 0.018024
v -1.672388 -0.014645 0.035355
v -1.663147 -0.021261 0.051328
v -1.650711 -0.027060 0.065328
v -1.635557 -0.031819 0.076818
v -1.618268 -0.035355 0.085355
v -1.599509 -0.037533 0.090613
v -1.678078 -0.010839 0.016221
v -1.672388 -0.021261 0.031819
v -1.663147 -0.030866 0.046194
v -1.650711 -0.039285 0.058794
v -1.635557 -0.046194 0.069134
v -1.618268 -0.051328 0.076818
v -1.599509 -0.054490 0.081549
v -1.678078 -0.013795 0.013795
v -1.672388 -0.027060 0.027060
v -1.663147 -0.039285 0.039285
v -1.650711 -0.050000 0.050000
v -1.635557 -0.058794 0.058794
v -1.618268 -0.065328 0.065328
v -1.599509 -0.069352 0.069352
v -1.678078 -0.016221 0.010839
v -1.672388 -0.031819 0.021261
v -1.663147 -0.046194 0.030866
v -1.650711 -0.058794 0.039285
v -1.635557 -0.069134 0.046194
v -1.618268 -0.076818 0.051328
v -1.599509 -0.081549 0.054489
v -1.678078 -0.018024 0.007466
v -1.672388 -0.035355 0.014645
v -1.663147 -0.051328 0.021261
v -1.650711 -0.065328 0.027060
v -1.635557 -0.076818 0.031819
v -1.618268 -0.085355 0.035355
v -1.599509 -0.090613 0.037533
v -1.678078 -0.019134 0.003806
v -1.672388 -0.037533 0.007466
v -1.663147 -0.054489 0.010839
v -1.650711 -0.069352 0.013795
v -1.635557 -0.081549 0.016221
v -1.618268 -0.090613 0.018024
v -1.599509 -0.096194 0.019134
v -1.678078 -0.019509 -0.000000
v -1.672388 -0.038268 -0.000000
v -1.663147 -0.055557 -0.000000
v -1.650711 -0.070711 -0.000000
v -1.635557 -0.083147 -0.000000
v -1.618268 -0.092388 -0.000000
v -1.599509 -0.098078 -0.000000
v -1.678078 -0.019134 -0.003806
v -1.672388 -0.037533 -0.007466
v -1.663147 -0.054489 -0.010839
v -1.650711 -0.069352 -0.013795
v -1.635557 -0.081549 -0.016221
v -1.618268 -0.090613 -0.018024
v -1.599509 -0.096194 -0.019134
v -1.678078 -0.018024 -0.007466
v -1.672388 -0.035355 -0.014645
v -1.663147 -0.051328 -0.021261
v -1.650711 -0.065328 -0.027060
v -1.635557 -0.076818 -0.031819
v -1.618268 -0.085355 -0.035355
v -1.599509 -0.090613 -0.037533
v -1.678078 -0.016221 -0.010839
v -1.672388 -0.031819 -0.021261
v -1.663147 -0.046194 -0.030866
v -1.650711 -0.058794 -0.039285
v -1.635557 -0.069134 -0.046194
v -1.618268 -0.076818 -0.051328
v -1.599509 -0.081549 -0.054490
v -1.678078 -0.013795 -0.013795
v -1.672388 -0.027060 -0.027060
v -1.663147 -0.039285 -0.039285
v -1.650711 -0.050000 -0.050000
v -1.635557 -0.058794 -0.058794
v -1.618268 -0.065328 -0.065328
v -1.599509 -0.069352 -0.069352
v -1.678078 -0.010839 -0.016221
v -1.672388 -0.021261 -0.031819
v -1.663147 -0.030866 -0.046194
v -1.650711 -0.039285 -0.058794
v -1.635557 -0.046194 -0.069134
v -1.618268 -0.051328 -0.076818
v -1.599509 -0.054489 -0.081549
v -1.678078 -0.007466 -0.018024
v -1.672388 -0.014645 -0.035355
v -1.663147 -0.021261 -0.051328
v -1.650711 -0.027060 -0.065328
v -1.635557 -0.031819 -0.076818
v -1.618268 -0.035355 -0.085355
v -1.599509 -0.037533 -0.090613
v -1.678078 -0.003806 -0.019134
v -1.672388 -0.007466 -0.037533
v -1.663147 -0.010839 -0.054489
v -1.650711 -0.013795 -0.069352
v -1.635557 -0.016221 -0.081549
v -1.618268 -0.018024 -0.090613
v -1.599509 -0.019134 -0.096194
v -1.678078 -0.000000 -0.019509
v -1.672388 0.000000 -0.038268
v -1.650711 0.000000 -0.070711
v -1.618268 0.000000 -0.092388
v -1.625000 0.000000 -0.080000
v -0.875000 -0.000000 -0.080000
v -1.625000 -0.015607 -0.078463
v -0.875000 -0.015607 -0.078463
v -1.625000 -0.030615 -0.073910
v -0.875000 -0.030615 -0.073910
v -1.625000 -0.044446 -0.066518
v -0.875000 -0.044446 -0.066518
v -1.625000 -0.056569 -0.056569
v -0.875000 -0.056569 -0.056569
v -1.625000 -0.066518 -0.044446
v -0.875000 -0.066518 -0.044446
v -1.625000 -0.073910 -0.030615
v -0.875000 -0.073910 -0.030615
v -1.625000 -0.078463 -0.015607
v -0.875000 -0.078463 -0.015607
v -1.625000 -0.080000 0.000000
v -0.875000 -0.080000 0.000000
v -1.625000 -0.078463 0.015607
v -0.875000 -0.078463 0.015607
v -1.625000 -0.073910 0.030615
v -0.875000 -0.073910 0.030615
v -1.625000 -0.066518 0.044446
v -0.875000 -0.066518 0.044446
v -1.625000 -0.056569 0.056569
v -0.875000 -0.056569 0.056569
v -1.625000 -0.044446 0.066518
v -0.875000 -0.044446 0.066518
v -1.625000 -0.030615 0.073910
v -0.875000 -0.030615 0.073910
v -1.625000 -0.015607 0.078463
v -0.875000 -0.015607 0.078463
v -1.625000 0.000000 0.080000
v -0.875000 -0.000000 0.080000
v -1.625000 0.015607 0.078463
v -0.875000 0.015607 0.078463
v -1.625000 0.030615 0.073910
v -0.875000 0.030615 0.073910
v -1.625000 0.044446 0.066518
v -0.875000 0.044446 0.066518
v -1.625000 0.056569 0.056569
v -0.875000 0.056569 0.056569
v -1.625000 0.066518 0.044446
v -0.875000 0.066518 0.044446
v -1.625000 0.073910 0.030615
v -0.875000 0.073910 0.030615
v -1.625000 0.078463 0.015607
v -0.875000 0.078463 0.015607
v -1.625000 0.080000 0.000000
v -0.875000 0.080000 0.000000
v -1.625000 0.078463 -0.015607
v -0.875000 0.078463 -0.015607
v -1.625000 0.073910 -0.030615
v -0.875000 0.073910 -0.030615
v -1.625000 0.066518 -0.044446
v -0.875000 0.066518 -0.044446
v -1.625000 0.056569 -0.056569
v -0.875000 0.056569 -0.056569
v -1.625000 0.044446 -0.066518
v -0.875000 0.044446 -0.066518
v -1.625000 0.030615 -0.073910
v -0.875000 0.030615 -0.073910
v -1.625000 0.015607 -0.078463
v -0.875000 0.015607 -0.078463
v -1.660000 -0.000000 0.000000
v -1.646574 0.000000 -0.044362
v -1.624502 0.000000 -0.066480
v -1.593703 0.000000 -0.078940
v -1.658486 0.003022 -0.015192
v -1.653954 0.005952 -0.029924
v -1.646574 0.008655 -0.043509
v -1.636629 0.011024 -0.055422
v -1.624502 0.012970 -0.065203
v -1.610657 0.014416 -0.072473
v -1.593703 0.015400 -0.077423
v -1.658486 0.005928 -0.014311
v -1.653954 0.011676 -0.028188
v -1.646574 0.016976 -0.040985
v -1.636629 0.021625 -0.052206
v -1.624502 0.025441 -0.061420
v -1.610657 0.028277 -0.068268
v -1.593703 0.030209 -0.072931
v -1.658486 0.008606 -0.012879
v -1.653954 0.016951 -0.025369
v -1.646574 0.024646 -0.036885
v -1.636629 0.031394 -0.046985
v -1.624502 0.036934 -0.055276
v -1.610657 0.041053 -0.061439
v -1.593703 0.043857 -0.065636
v -1.658486 0.010953 -0.010953
v -1.653954 0.021574 -0.021574
v -1.646574 0.031368 -0.031368
v -1.636629 0.039957 -0.039957
v -1.624502 0.047009 -0.047009
v -1.610657 0.052250 -0.052250
v -1.593703 0.055819 -0.055819
v -1.658486 0.012879 -0.008606
v -1.653954 0.025369 -0.016951
v -1.646574 0.036885 -0.024646
v -1.636629 0.046985 -0.031394
v -1.624502 0.055276 -0.036934
v -1.610657 0.061439 -0.041053
v -1.593703 0.065636 -0.043857
v -1.658486 0.014311 -0.005928
v -1.653954 0.028188 -0.011676
v -1.646574 0.040985 -0.016976
v -1.636629 0.052206 -0.021625
v -1.624502 0.061420 -0.025441
v -1.610657 0.068268 -0.028277
v -1.593703 0.072931 -0.030209
v -1.658486 0.015192 -0.003022
v -1.653954 0.029924 -0.005952
v -1.646574 0.043509 -0.008655
v -1.636629 0.055422 -0.011024
v -1.624502 0.065203 -0.012970
v -1.610657 0.072473 -0.014416
v -1.593703 0.077423 -0.015400
v -1.658486 0.015490 0.000000
v -1.653954 0.030511 0.000000
v -1.646574 0.044362 0.000000
v -1.636629 0.056508 -0.000000
v -1.624502 0.066480 0.000000
v -1.610657 0.073893 -0.000000
v -1.593703 0.078940 0.000000
v -1.658486 0.015192 0.003022
v -1.653954 0.029924 0.005952
v -1.646574 0.043509 0.008655
v -1.636629 0.055422 0.011024
v -1.624502 0.065203 0.012970
v -1.610657 0.072473 0.014416
v -1.593703 0.077423 0.015400
v -1.658486 0.014311 0.005928
v -1.653954 0.028188 0.011676
v -1.646574 0.040985 0.016976
v -1.636629 0.052206 0.021625
v -1.624502 0.061420 0.025441
v -1.610657 0.068268 0.028277
v -1.593703 0.072931 0.030209
v -1.658486 0.012879 0.008606
v -1.653954 0.025369 0.016951
v -1.646574 0.036885 0.024646
v -1.636629 0.046985 0.031394
v -1.624502 0.055276 0.036934
v -1.610657 0.061439 0.041053
v -1.593703 0.065636 0.043857
v -1.658486 0.010953 0.010953
v -1.653954 0.021574 0.021574
v -1.646574 0.031368 0.031368
v -1.636629 0.039957 0.039957
v -1.624502 0.047009 0.047009
v -1.610657 0.052250 0.052250
v -1.593703 0.055819 0.055819
v -1.658486 0.008606 0.012879
v -1.653954 0.016951 0.025369
v -1.646574 0.024646 0.036885
v -1.636629 0.031394 0.046985
v -1.624502 0.036934 0.055276
v -1.610657 0.041053 0.061439
v -1.593703 0.043857 0.065636
v -1.658486 0.005928 0.014311
v -1.653954 0.011676 0.028188
v -1.646574 0.016976 0.040985
v -1.636629 0.021625 0.052206
v -1.624502 0.025441 0.061420
v -1.610657 0.028277 0.068268
v -1.593703 0.030209 0.072931
v -1.658486 0.003022 0.015192
v -1.653954 0.005952 0.029924
v -1.646574 0.008654 0.043509
v -1.636629 0.011024 0.055422
v -1.624502 0.012970 0.065203
v -1.610657 0.014416 0.072473
v -1.593703 0.015400 0.077423
v -1.658486 -0.000000 0.015490
v -1.653954 -0.000000 0.030511
v -1.646574 -0.000000 0.044362
v -1.636629 -0.000000 0.056508
v -1.624502 -0.000000 0.066480
v -1.610657 0.000000 0.073893
v -1.593703 -0.000000 0.078940
v -1.658486 -0.003022 0.015192
v -1.653954 -0.005952 0.029924
v -1.646574 -0.008655 0.043509
v -1.636629 -0.011024 0.055422
v -1.624502 -0.012970 0.065203
v -1.610657 -0.014416 0.072473
v -1.593703 -0.015400 0.077423
v -1.658486 -0.005928 0.014311
v -1.653954 -0.011676 0.028188
v -1.646574 -0.016976 0.040985
v -1.636629 -0.021625 0.052206
v -1.624502 -0.025441 0.061420
v -1.610657 -0.028277 0.068268
v -1.593703 -0.030209 0.072931
v -1.658486 -0.008606 0.012879
v -1.653954 -0.016951 0.025369
v -1.646574 -0.024646 0.036885
v -1.636629 -0.031394 0.046985
v -1.624502 -0.036934 0.055276
v -1.610657 -0.041053 0.061439
v -1.593703 -0.043857 0.065636
v -1.658486 -0.010953 0.010953
v -1.653954 -0.021574 0.021574
v -1.646574 -0.031368 0.031368
v -1.636629 -0.039957 0.039957
v -1.624502 -0.047009 0.047009
v -1.610657 -0.052250 0.052250
v -1.593703 -0.055819 0.055819
v -1.658486 -0.012879 0.008606
v -1.653954 -0.025369 0.016951
v -1.646574 -0.036885 0.024646
v -1.636629 -0.046985 0.031394
v -1.624502 -0.055276 0.036934
v -1.610657 -0.061439 0.041053
v -1.593703 -0.065636 0.043857
v -1.658486 -0.014311 0.005928
v -1.653954 -0.028188 0.011676
v -1.646574 -0.040985 0.016976
v -1.636629 -0.052206 0.021625
v -1.624502 -0.061420 0.025441
v -1.610657 -0.068268 0.028277
v -1.593703 -0.072931 0.030209
v -1.658486 -0.015192 0.003022
v -1.653954 -0.029924 0.005952
v -1.646574 -0.043509 0.008654
v -1.636629 -0.055422 0.011024
v -1.624502 -0.065203 0.012970
v -1.610657 -0.072473 0.014416
v -1.593703 -0.077423 0.015400
v -1.658486 -0.015490 -0.000000
v -1.653954 -0.030511 -0.000000
v -1.646574 -0.044362 -0.000000
v -1.636629 -0.056508 0.000000
v -1.624502 -0.066480 -0.000000
v -1.610657 -0.073893 0.000000
v -1.593703 -0.078940 -0.000000
v -1.658486 -0.015192 -0.003022
v -1.653954 -0.029924 -0.005952
v -1.646574 -0.043509 -0.008655
v -1.636629 -0.055422 -0.011024
v -1.624502 -0.065203 -0.012970
v -1.610657 -0.072473 -0.014416
v -1.593703 -0.077423 -0.015400
v -1.658486 -0.014311 -0.005928
v -1.653954 -0.028188 -0.011676
v -1.646574 -0.040985 -0.016976
v -1.636629 -0.052206 -0.021625
v -1.624502 -0.061420 -0.025441
v -1.610657 -0.068268 -0.028277
v -1.593703 -0.072931 -0.030209
v -1.658486 -0.012879 -0.008606
v -1.653954 -0.025369 -0.016951
v -1.646574 -0.036885 -0.024646
v -1.636629 -0.046985 -0.031394
v -1.624502 -0.055276 -0.036934
v -1.610657 -0.061439 -0.041053
v -1.593703 -0.065636 -0.043857
v -1.658486 -0.010953 -0.010953
v -1.653954 -0.021574 -0.021574
v -1.646574 -0.031368 -0.031368
v -1.636629 -0.039957 -0.039957
v -1.624502 -0.047009 -0.047009
v -1.610657 -0.052250 -0.052250
v -1.593703 -0.055819 -0.055819
v -1.658486 -0.008606 -0.012879
v -1.653954 -0.016951 -0.025369
v -1.646574 -0.024646 -0.036885
v -1.636629 -0.031394 -0.046985
v -1.624502 -0.036934 -0.055276
v -1.610657 -0.041053 -0.061439
v -1.593703 -0.043857 -0.065636
v -1.658486 -0.005928 -0.014311
v -1.653954 -0.011676 -0.028188
v -1.646574 -0.016976 -0.040985
v -1.636629 -0.021625 -0.052206
v -1.624502 -0.025441 -0.061420
v -1.610657 -0.028277 -0.068268
v -1.593703 -0.030209 -0.072931
v -1.658486 -0.003022 -0.015192
v -1.653954 -0.005952 -0.029924
v -1.646574 -0.008654 -0.043509
v -1.636629 -0.011024 -0.055422
v -1.624502 -0.012970 -0.065203
v -1.610657 -0.014416 -0.072473
v -1.593703 -0.015400 -0.077423
v -1.658486 0.000000 -0.015490
v -1.653954 0.000000 -0.030511
v -1.636629 0.000000 -0.056508
v -1.610657 0.000000 -0.073893
v -1.611286 0.000000 -0.065442
v -0.888714 -0.000000 -0.065442
v -1.611286 -0.012767 -0.064185
v -0.888714 -0.012767 -0.064185
v -1.611286 -0.025044 -0.060461
v -0.888714 -0.025044 -0.060461
v -1.611286 -0.036358 -0.054413
v -0.888714 -0.036358 -0.054413
v -1.611286 -0.046275 -0.046275
v -0.888714 -0.046275 -0.046275
v -1.611286 -0.054413 -0.036358
v -0.888714 -0.054413 -0.036358
v -1.611286 -0.060461 -0.025044
v -0.888714 -0.060461 -0.025044
v -1.611286 -0.064185 -0.012767
v -0.888714 -0.064185 -0.012767
v -1.611286 -0.065442 0.000000
v -0.888714 -0.065442 0.000000
v -1.611286 -0.064185 0.012767
v -0.888714 -0.064185 0.012767
v -1.611286 -0.060461 0.025044
v -0.888714 -0.060461 0.025044
v -1.611286 -0.054413 0.036358
v -0.888714 -0.054413 0.036358
v -1.611286 -0.046275 0.046275
v -0.888714 -0.046275 0.046275
v -1.611286 -0.036358 0.054413
v -0.888714 -0.036358 0.054413
v -1.611286 -0.025044 0.060461
v -0.888714 -0.025044 0.060461
v -1.611286 -0.012767 0.064185
v -0.888714 -0.012767 0.064185
v -1.611286 0.000000 0.065442
v -0.888714 -0.000000 0.065442
v -1.611286 0.012767 0.064185
v -0.888714 0.012767 0.064185
v -1.611286 0.025044 0.060461
v -0.888714 0.025044 0.060461
v -1.611286 0.036358 0.054413
v -0.888714 0.036358 0.054413
v -1.611286 0.046275 0.046275
v -0.888714 0.046275 0.046275
v -1.611286 0.054413 0.036358
v -0.888714 0.054413 0.036358
v -1.611286 0.060461 0.025044
v -0.888714 0.060461 0.025044
v -1.611286 0.064185 0.012767
v -0.888714 0.064185 0.012767
v -1.611286 0.065442 0.000000
v -0.888714 0.065442 0.000000
v -1.611286 0.064185 -0.012767
v -0.888714 0.064185 -0.012767
v -1.611286 0.060461 -0.025044
v -0.888714 0.060461 -0.025044
v -1.611286 0.054413 -0.036358
v -0.888714 0.054413 -0.036358
v -1.611286 0.046275 -0.046275
v -0.888714 0.046275 -0.046275
v -1.611286 0.036358 -0.054413
v -0.888714 0.036358 -0.054413
v -1.611286 0.025044 -0.060461
v -0.888714 0.025044 -0.060461
v -1.611286 0.012767 -0.064185
v -0.888714 0.012767 -0.064185
vn -1.0000 -0.0000 -0.0000
vn -0.8286 -0.0000 -0.5598
vn -0.5528 -0.0000 -0.8333
vn 0.4540 -0.0000 -0.8910
vn -0.9796 0.0392 -0.1971
vn -0.9217 0.0757 -0.3804
vn -0.8286 0.1092 -0.5490
vn -0.7041 0.1385 -0.6965
vn -0.5528 0.1626 -0.8173
vn -0.3805 0.1804 -0.9070
vn 0.4540 0.1738 -0.8739
vn -0.9796 0.0769 -0.1857
vn -0.9217 0.1484 -0.3584
vn -0.8286 0.2142 -0.5172
vn -0.7041 0.2718 -0.6561
vn -0.5528 0.3189 -0.7699
vn -0.3805 0.3539 -0.8544
vn 0.4540 0.3410 -0.8232
vn -0.9796 0.1117 -0.1671
vn -0.9217 0.2155 -0.3225
vn -0.8286 0.3110 -0.4654
vn -0.7041 0.3945 -0.5905
vn -0.5528 0.4630 -0.6929
vn -0.3805 0.5138 -0.7689
vn 0.4540 0.4950 -0.7409
vn -0.9796 0.1421 -0.1421
vn -0.9217 0.2743 -0.2743
vn -0.8286 0.3958 -0.3958
vn -0.7041 0.5021 -0.5021
vn -0.5528 0.5893 -0.5893
vn -0.3805 0.6539 -0.6539
vn 0.4540 0.6300 -0.6300
vn -0.9796 0.1671 -0.1117
vn -0.9217 0.3225 -0.2155
vn -0.8286 0.4654 -0.3110
vn -0.7041 0.5905 -0.3945
vn -0.5528 0.6929 -0.4630
vn -0.3805 0.7689 -0.5138
vn 0.4540 0.7409 -0.4950
vn -0.9796 0.1857 -0.0769
vn -0.9217 0.3584 -0.1484
vn -0.8286 0.5172 -0.2142
vn -0.7041 0.6561 -0.2718
vn -0.5528 0.7699 -0.3189
vn -0.3805 0.8544 -0.3539
vn 0.4540 0.8232 -0.3410
vn -0.9796 0.1971 -0.0392
vn -0.9217 0.3804 -0.0757
vn -0.8286 0.5490 -0.1092
vn -0.7041 0.6965 -0.1385
vn -0.5528 0.8173 -0.1626
vn -0.3805 0.9070 -0.1804
vn 0.4540 0.8739 -0.1738
vn -0.9796 0.2010 -0.0000
vn -0.9217 0.3879 -0.0000
vn -0.8286 0.5598 -0.0000
vn -0.7041 0.7101 -0.0000
vn -0.5528 0.8333 -0.0000
vn -0.3805 0.9248 -0.0000
vn 0.4540 0.8910 -0.0000
vn -0.9796 0.1971 0.0392
vn -0.9217 0.3804 0.0757
vn -0.8286 0.5490 0.1092
vn -0.7041 0.6965 0.1385
vn -0.5528 0.8173 0.1626
vn -0.3805 0.9070 0.1804
vn 0.4540 0.8739 0.1738
vn -0.9796 0.1857 0.0769
vn -0.9217 0.3584 0.1484
vn -0.8286 0.5172 0.2142
vn -0.7041 0.6561 0.2718
vn -0.5528 0.7699 0.3189
vn -0.3805 0.8544 0.3539
vn 0.4540 0.8232 0.3410
vn -0.9796 0.1671 0.1117
vn -0.9217 0.3225 0.2155
vn -0.8286 0.4654 0.3110
vn -0.7041 0.5905 0.3945
vn -0.5528 0.6929 0.4630
vn -0.3805 0.7689 0.5138
vn 0.4540 0.7409 0.4950
vn -0.9796 0.1421 0.1421
vn -0.9217 0.2743 0.2743
vn -0.8286 0.3958 0.3958
vn -0.7041 0.5021 0.5021
vn -0.5528 0.5893 0.5893
vn -0.3805 0.6539 0.6539
vn 0.4540 0.6300 0.6300
vn -0.9796 0.1117 0.1671
vn -0.9217 0.2155 0.3225
vn -0.8286 0.3110 0.4654
vn -0.7041 0.3945 0.5905
vn -0.5528 0.4630 0.6929
vn -0.3805 0.5138 0.7689
vn 0.4540 0.4950 0.7409
vn -0.9796 0.0769 0.1857
vn -0.9217 0.1484 0.3584
vn -0.8286 0.2142 0.5172
vn -0.7041 0.2718 0.6561
vn -0.5528 0.3189 0.7699
vn -0.3805 0.3539 0.8544
vn 0.4540 0.3410 0.8232
vn -0.9796 0.0392 0.1971
vn -0.9217 0.0757 0.3804
vn -0.8286 0.1092 0.5490
vn -0.7041 0.1385 0.6965
vn -0.5528 0.1626 0.8173
vn -0.3805 0.1804 0.9070
vn 0.4540 0.1738 0.8739
vn -0.9796 -0.0000 0.2010
vn -0.9217 -0.0000 0.3879
vn -0.8286 -0.0000 0.5598
vn -0.7041 -0.0000 0.7101
vn -0.5528 -0.0000 0.8333
vn -0.3805 -0.0000 0.9248
vn 0.4540 -0.0000 0.8910
vn -0.9796 -0.0392 0.1971
vn -0.9217 -0.0757 0.3804
vn -0.8286 -0.1092 0.5490
vn -0.7041 -0.1385 0.6965
vn -0.5528 -0.1626 0.8173
vn -0.3805 -0.1804 0.9070
vn 0.4540 -0.1738 0.8739
vn -0.9796 -0.0769 0.1857
vn -0.9217 -0.1484 0.3584
vn -0.8286 -0.2142 0.5172
vn -0.7041 -0.2718 0.6561
vn -0.5528 -0.3189 0.7699
vn -0.3805 -0.3539 0.8544
vn 0.4540 -0.3410 0.8232
vn -0.9796 -0.1117 0.1671
vn -0.9217 -0.2155 0.3225
vn -0.8286 -0.3110 0.4654
vn -0.7041 -0.3945 0.5905
vn -0.5528 -0.4630 0.6929
vn -0.3805 -0.5138 0.7689
vn 0.4540 -0.4950 0.7409
vn -0.9796 -0.1421 0.1421
vn -0.9217 -0.2743 0.2743
vn -0.8286 -0.3958 0.3958
vn -0.7041 -0.5021 0.5021
vn -0.5528 -0.5893 0.5893
vn -0.3805 -0.6539 0.6539
vn 0.4540 -0.6300 0.6300
vn -0.9796 -0.1671 0.1117
vn -0.9217 -0.3225 0.2155
vn -0.8286 -0.4654 0.3110
vn -0.7041 -0.5905 0.3945
vn -0.5528 -0.6929 0.4630
vn -0.3805 -0.7689 0.5138
vn 0.4540 -0.7409 0.4950
vn -0.9796 -0.1857 0.0769
vn -0.9217 -0.3584 0.1484
vn -0.8286 -0.5172 0.2142
vn -0.7041 -0.6561 0.2718
vn -0.5528 -0.7699 0.3189
vn -0.3805 -0.8544 0.3539
vn 0.4540 -0.8232 0.3410
vn -0.9796 -0.1971 0.0392
vn -0.9217 -0.3804 0.0757
vn -0.8286 -0.5490 0.1092
vn -0.7041 -0.6965 0.1385
vn -0.5528 -0.8173 0.1626
vn -0.3805 -0.9070 0.1804
vn 0.4540 -0.8739 0.1738
vn -0.9796 -0.2010 -0.0000
vn -0.9217 -0.3879 -0.0000
vn -0.8286 -0.5598 -0.0000
vn -0.7041 -0.7101 -0.0000
vn -0.5528 -0.8333 -0.0000
vn -0.3805 -0.9248 -0.0000
vn 0.4540 -0.8910 -0.0000
vn -0.9796 -0.1971 -0.0392
vn -0.9217 -0.3804 -0.0757
vn -0.8286 -0.5490 -0.1092
vn -0.7041 -0.6965 -0.1385
vn -0.5528 -0.8173 -0.1626
vn -0.3805 -0.9070 -0.1804
vn 0.4540 -0.8739 -0.1738
vn -0.9796 -0.1857 -0.0769
vn -0.9217 -0.3584 -0.1484
vn -0.8286 -0.5172 -0.2142
vn -0.7041 -0.6561 -0.2718
vn -0.5528 -0.7699 -0.3189
vn -0.3805 -0.8544 -0.3539
vn 0.4540 -0.8232 -0.3410
vn -0.9796 -0.1671 -0.1117
vn -0.9217 -0.3225 -0.2155
vn -0.8286 -0.4654 -0.3110
vn -0.7041 -0.5905 -0.3945
vn -0.5528 -0.6929 -0.4630
vn -0.3805 -0.7689 -0.5138
vn 0.4540 -0.7409 -0.4950
vn -0.9796 -0.1421 -0.1421
vn -0.9217 -0.2743 -0.2743
vn -0.8286 -0.3958 -0.3958
vn -0.7041 -0.5021 -0.5021
vn -0.5528 -0.5893 -0.5893
vn -0.3805 -0.6539 -0.6539
vn 0.4540 -0.6300 -0.6300
vn -0.9796 -0.1117 -0.1671
vn -0.9217 -0.2155 -0.3225
vn -0.8286 -0.3110 -0.4654
vn -0.7041 -0.3945 -0.5905
vn -0.5528 -0.4630 -0.6929
vn -0.3805 -0.5138 -0.7689
vn 0.4540 -0.4950 -0.7409
vn -0.9796 -0.0769 -0.1857
vn -0.9217 -0.1484 -0.3584
vn -0.8286 -0.2142 -0.5172
vn -0.7041 -0.2718 -0.6561
vn -0.5528 -0.3189 -0.7699
vn -0.3805 -0.3539 -0.8544
vn 0.4540 -0.3410 -0.8232
vn -0.9796 -0.0392 -0.1971
vn -0.9217 -0.0757 -0.3804
vn -0.8286 -0.1092 -0.5490
vn -0.7041 -0.1385 -0.6965
vn -0.5528 -0.1626 -0.8173
vn -0.3805 -0.1804 -0.9070
vn 0.4540 -0.1738 -0.8739
vn -0.9796 -0.0000 -0.2010
vn -0.9217 -0.0000 -0.3879
vn -0.7041 -0.0000 -0.7101
vn -0.3805 -0.0000 -0.9248
vn -0.6857 -0.0000 -0.7279
vn 0.6857 -0.0000 -0.7279
vn -0.6857 -0.1420 -0.7139
vn 0.6857 -0.1420 -0.7139
vn -0.6857 -0.2785 -0.6725
vn 0.6857 -0.2785 -0.6725
vn -0.6857 -0.4044 -0.6052
vn 0.6857 -0.4044 -0.6052
vn -0.6857 -0.5147 -0.5147
vn 0.6857 -0.5147 -0.5147
vn -0.6857 -0.6052 -0.4044
vn 0.6857 -0.6052 -0.4044
vn -0.6857 -0.6725 -0.2785
vn 0.6857 -0.6725 -0.2785
vn -0.6857 -0.7139 -0.1420
vn 0.6857 -0.7139 -0.1420
vn -0.6857 -0.7279 -0.0000
vn 0.6857 -0.7279 -0.0000
vn -0.6857 -0.7139 0.1420
vn 0.6857 -0.7139 0.1420
vn -0.6857 -0.6725 0.2785
vn 0.6857 -0.6725 0.2785
vn -0.6857 -0.6052 0.4044
vn 0.6857 -0.6052 0.4044
vn -0.6857 -0.5147 0.5147
vn 0.6857 -0.5147 0.5147
vn -0.6857 -0.4044 0.6052
vn 0.6857 -0.4044 0.6052
vn -0.6857 -0.2785 0.6725
vn 0.6857 -0.2785 0.6725
vn -0.6857 -0.1420 0.7139
vn 0.6857 -0.1420 0.7139
vn -0.6857 -0.0000 0.7279
vn 0.6857 -0.0000 0.7279
vn -0.6857 0.1420 0.7139
vn 0.6857 0.1420 0.7139
vn -0.6857 0.2785 0.6725
vn 0.6857 0.2785 0.6725
vn -0.6857 0.4044 0.6052
vn 0.6857 0.4044 0.6052
vn -0.6857 0.5147 0.5147
vn 0.6857 0.5147 0.5147
vn -0.6857 0.6052 0.4044
vn 0.6857 0.6052 0.4044
vn -0.6857 0.6725 0.2785
vn 0.6857 0.6725 0.2785
vn -0.6857 0.7139 0.1420
vn 0.6857 0.7139 0.1420
vn -0.6857 0.7279 -0.0000
vn 0.6857 0.7279 -0.0000
vn -0.6857 0.7139 -0.1420
vn 0.6857 0.7139 -0.1420
vn -0.6857 0.6725 -0.2785
vn 0.6857 0.6725 -0.2785
vn -0.6857 0.6052 -0.4044
vn 0.6857 0.6052 -0.4044
vn -0.6857 0.5147 -0.5147
vn 0.6857 0.5147 -0.5147
vn -0.6857 0.4044 -0.6052
vn 0.6857 0.4044 -0.6052
vn -0.6857 0.2785 -0.6725
vn 0.6857 0.2785 -0.6725
vn -0.6857 0.1420 -0.7139
vn 0.6857 0.1420 -0.7139
vn 1.0000 -0.0000 -0.0000
vn 0.8293 -0.0000 0.5587
vn 0.5534 -0.0000 0.8329
vn 0.8990 -0.0000 0.4379
vn 0.9798 -0.0390 0.1960
vn 0.9222 -0.0754 0.3792
vn 0.8293 -0.1090 0.5480
vn 0.7048 -0.1384 0.6958
vn 0.5534 -0.1625 0.8169
vn 0.3784 -0.1806 0.9079
vn 0.8990 -0.0854 0.4295
vn 0.9798 -0.0765 0.1846
vn 0.9222 -0.1479 0.3572
vn 0.8293 -0.2138 0.5162
vn 0.7048 -0.2715 0.6554
vn 0.5534 -0.3187 0.7695
vn 0.3784 -0.3542 0.8552
vn 0.8990 -0.1676 0.4046
vn 0.9798 -0.1110 0.1662
vn 0.9222 -0.2148 0.3215
vn 0.8293 -0.3104 0.4646
vn 0.7048 -0.3941 0.5898
vn 0.5534 -0.4627 0.6925
vn 0.3784 -0.5143 0.7696
vn 0.8990 -0.2433 0.3641
vn 0.9798 -0.1413 0.1413
vn 0.9222 -0.2734 0.2734
vn 0.8293 -0.3951 0.3951
vn 0.7048 -0.5016 0.5016
vn 0.5534 -0.5889 0.5889
vn 0.3784 -0.6545 0.6545
vn 0.8990 -0.3097 0.3097
vn 0.9798 -0.1662 0.1110
vn 0.9222 -0.3215 0.2148
vn 0.8293 -0.4646 0.3104
vn 0.7048 -0.5898 0.3941
vn 0.5534 -0.6925 0.4627
vn 0.3784 -0.7696 0.5143
vn 0.8990 -0.3641 0.2433
vn 0.9798 -0.1846 0.0765
vn 0.9222 -0.3572 0.1479
vn 0.8293 -0.5162 0.2138
vn 0.7048 -0.6554 0.2715
vn 0.5534 -0.7695 0.3187
vn 0.3784 -0.8552 0.3542
vn 0.8990 -0.4046 0.1676
vn 0.9798 -0.1960 0.0390
vn 0.9222 -0.3792 0.0754
vn 0.8293 -0.5480 0.1090
vn 0.7048 -0.6958 0.1384
vn 0.5534 -0.8169 0.1625
vn 0.3784 -0.9079 0.1806
vn 0.8990 -0.4295 0.0854
vn 0.9798 -0.1999 -0.0000
vn 0.9222 -0.3866 -0.0000
vn 0.8293 -0.5587 -0.0000
vn 0.7048 -0.7094 -0.0000
vn 0.5534 -0.8329 -0.0000
vn 0.3784 -0.9256 -0.0000
vn 0.8990 -0.4379 -0.0000
vn 0.9798 -0.1960 -0.0390
vn 0.9222 -0.3792 -0.0754
vn 0.8293 -0.5480 -0.1090
vn 0.7048 -0.6958 -0.1384
vn 0.5534 -0.8169 -0.1625
vn 0.3784 -0.9079 -0.1806
vn 0.8990 -0.4295 -0.0854
vn 0.9798 -0.1846 -0.0765
vn 0.9222 -0.3572 -0.1479
vn 0.8293 -0.5162 -0.2138
vn 0.7048 -0.6554 -0.2715
vn 0.5534 -0.7695 -0.3187
vn 0.3784 -0.8552 -0.3542
vn 0.8990 -0.4046 -0.1676
vn 0.9798 -0.1662 -0.1110
vn 0.9222 -0.3215 -0.2148
vn 0.8293 -0.4646 -0.3104
vn 0.7048 -0.5898 -0.3941
vn 0.5534 -0.6925 -0.4627
vn 0.3784 -0.7696 -0.5143
vn 0.8990 -0.3641 -0.2433
vn 0.9798 -0.1413 -0.1413
vn 0.9222 -0.2734 -0.2734
vn 0.8293 -0.3951 -0.3951
vn 0.7048 -0.5016 -0.5016
vn 0.5534 -0.5889 -0.5889
vn 0.3784 -0.6545 -0.6545
vn 0.8990 -0.3097 -0.3097
vn 0.9798 -0.1110 -0.1662
vn 0.9222 -0.2148 -0.3215
vn 0.8293 -0.3104 -0.4646
vn 0.7048 -0.3941 -0.5898
vn 0.5534 -0.4627 -0.6925
vn 0.3784 -0.5143 -0.7696
vn 0.8990 -0.2433 -0.3641
vn 0.9798 -0.0765 -0.1846
vn 0.9222 -0.1479 -0.3572
vn 0.8293 -0.2138 -0.5162
vn 0.7048 -0.2715 -0.6554
vn 0.5534 -0.3187 -0.7695
vn 0.3784 -0.3542 -0.8552
vn 0.8990 -0.1676 -0.4046
vn 0.9798 -0.0390 -0.1960
vn 0.9222 -0.0754 -0.3792
vn 0.8293 -0.1090 -0.5480
vn 0.7048 -0.1384 -0.6958
vn 0.5534 -0.1625 -0.8169
vn 0.3784 -0.1806 -0.9079
vn 0.8990 -0.0854 -0.4295
vn 0.9798 -0.0000 -0.1999
vn 0.9222 -0.0000 -0.3866
vn 0.8293 -0.0000 -0.5587
vn 0.7048 -0.0000 -0.7094
vn 0.5534 -0.0000 -0.8329
vn 0.3784 -0.0000 -0.9256
vn 0.8990 -0.0000 -0.4379
vn 0.9798 0.0390 -0.1960
vn 0.9222 0.0754 -0.3792
vn 0.8293 0.1090 -0.5480
vn 0.7048 0.1384 -0.6958
vn 0.5534 0.1625 -0.8169
vn 0.3784 0.1806 -0.9079
vn 0.8990 0.0854 -0.4295
vn 0.9798 0.0765 -0.1846
vn 0.9222 0.1479 -0.3572
vn 0.8293 0.2138 -0.5162
vn 0.7048 0.2715 -0.6554
vn 0.5534 0.3187 -0.7695
vn 0.3784 0.3542 -0.8552
vn 0.8990 0.1676 -0.4046
vn 0.9798 0.1110 -0.1662
vn 0.9222 0.2148 -0.3215
vn 0.8293 0.3104 -0.4646
vn 0.7048 0.3941 -0.5898
vn 0.5534 0.4627 -0.6925
vn 0.3784 0.5143 -0.7696
vn 0.8990 0.2433 -0.3641
vn 0.9798 0.1413 -0.1413
vn 0.9222 0.2734 -0.2734
vn 0.8293 0.3951 -0.3951
vn 0.7048 0.5016 -0.5016
vn 0.5534 0.5889 -0.5889
vn 0.3784 0.6545 -0.6545
vn 0.8990 0.3097 -0.3097
vn 0.9798 0.1662 -0.1110
vn 0.9222 0.3215 -0.2148
vn 0.8293 0.4646 -0.3104
vn 0.7048 0.5898 -0.3941
vn 0.5534 0.6925 -0.4627
vn 0.3784 0.7696 -0.5143
vn 0.8990 0.3641 -0.2433
vn 0.9798 0.1846 -0.0765
vn 0.9222 0.3572 -0.1479
vn 0.8293 0.5162 -0.2138
vn 0.7048 0.6554 -0.2715
vn 0.5534 0.7695 -0.3187
vn 0.3784 0.8552 -0.3542
vn 0.8990 0.4046 -0.1676
vn 0.9798 0.1960 -0.0390
vn 0.9222 0.3792 -0.0754
vn 0.8293 0.5480 -0.1090
vn 0.7048 0.6958 -0.1384
vn 0.5534 0.8169 -0.1625
vn 0.3784 0.9079 -0.1806
vn 0.8990 0.4295 -0.0854
vn 0.9798 0.1999 -0.0000
vn 0.9222 0.3866 -0.0000
vn 0.8293 0.5587 -0.0000
vn 0.7048 0.7094 -0.0000
vn 0.5534 0.8329 -0.0000
vn 0.3784 0.9256 -0.0000
vn 0.8990 0.4379 -0.0000
vn 0.9798 0.1960 0.0390
vn 0.9222 0.3792 0.0754
vn 0.8293 0.5480 0.1090
vn 0.7048 0.6958 0.1384
vn 0.5534 0.8169 0.1625
vn 0.3784 0.9079 0.1806
vn 0.8990 0.4295 0.0854
vn 0.9798 0.1846 0.0765
vn 0.9222 0.3572 0.1479
vn 0.8293 0.5162 0.2138
vn 0.7048 0.6554 0.2715
vn 0.5534 0.7695 0.3187
vn 0.3784 0.8552 0.3542
vn 0.8990 0.4046 0.1676
vn 0.9798 0.1662 0.1110
vn 0.9222 0.3215 0.2148
vn 0.8293 0.4646 0.3104
vn 0.7048 0.5898 0.3941
vn 0.5534 0.6925 0.4627
vn 0.3784 0.7696 0.5143
vn 0.8990 0.3641 0.2433
vn 0.9798 0.1413 0.1413
vn 0.9222 0.2734 0.2734
vn 0.8293 0.3951 0.3951
vn 0.7048 0.5016 0.5016
vn 0.5534 0.5889 0.5889
vn 0.3784 0.6545 0.6545
vn 0.8990 0.3097 0.3097
vn 0.9798 0.1110 0.1662
vn 0.9222 0.2148 0.3215
vn 0.8293 0.3104 0.4646
vn 0.7048 0.3941 0.5898
vn 0.5534 0.4627 0.6925
vn 0.3784 0.5143 0.7696
vn 0.8990 0.2433 0.3641
vn 0.9798 0.0765 0.1846
vn 0.9222 0.1479 0.3572
vn 0.8293 0.2138 0.5162
vn 0.7048 0.2715 0.6554
vn 0.5534 0.3187 0.7695
vn 0.3784 0.3542 0.8552
vn 0.8990 0.1676 0.4046
vn 0.9798 0.0390 0.1960
vn 0.9222 0.0754 0.3792
vn 0.8293 0.1090 0.5480
vn 0.7048 0.1384 0.6958
vn 0.5534 0.1625 0.8169
vn 0.3784 0.1806 0.9079
vn 0.8990 0.0854 0.4295
vn 0.9798 -0.0000 0.1999
vn 0.9222 -0.0000 0.3866
vn 0.7048 -0.0000 0.7094
vn 0.3784 -0.0000 0.9256
vt 0.750000 0.937500
vt 0.734375 1.000000
vt 0.718750 0.937500
vt 0.750000 0.875000
vt 0.718750 0.875000
vt 0.750000 0.812500
vt 0.718750 0.812500
vt 0.750000 0.750000
vt 0.718750 0.750000
vt 0.750000 0.687500
vt 0.718750 0.687500
vt 0.750000 0.625000
vt 0.718750 0.625000
vt 0.750000 0.562500
vt 0.718750 0.562500
vt 0.687500 0.625000
vt 0.687500 0.562500
vt 0.703125 1.000000
vt 0.687500 0.937500
vt 0.687500 0.875000
vt 0.687500 0.812500
vt 0.687500 0.750000
vt 0.687500 0.687500
vt 0.656250 0.875000
vt 0.656250 0.812500
vt 0.656250 0.750000
vt 0.656250 0.687500
vt 0.656250 0.625000
vt 0.656250 0.562500
vt 0.671875 1.000000
vt 0.656250 0.937500
vt 0.625000 0.625000
vt 0.625000 0.562500
vt 0.640625 1.000000
vt 0.625000 0.937500
vt 0.625000 0.875000
vt 0.625000 0.812500
vt 0.625000 0.750000
vt 0.625000 0.687500
vt 0.593750 0.812500
vt 0.593750 0.750000
vt 0.593750 0.687500
vt 0.593750 0.625000
vt 0.593750 0.562500
vt 0.609375 1.000000
vt 0.593750 0.937500
vt 0.593750 0.875000
vt 0.578125 1.000000
vt 0.562500 0.937500
vt 0.562500 0.875000
vt 0.562500 0.812500
vt 0.562500 0.750000
vt 0.562500 0.687500
vt 0.562500 0.625000
vt 0.562500 0.562500
vt 0.531250 0.812500
vt 0.531250 0.750000
vt 0.531250 0.687500
vt 0.531250 0.625000
vt 0.531250 0.562500
vt 0.546875 1.000000
vt 0.531250 0.937500
vt 0.531250 0.875000
vt 0.515625 1.000000
vt 0.500000 0.937500
vt 0.500000 0.875000
vt 0.500000 0.812500
vt 0.500000 0.750000
vt 0.500000 0.687500
vt 0.500000 0.625000
vt 0.500000 0.562500
vt 0.468750 0.750000
vt 0.468750 0.687500
vt 0.468750 0.625000
vt 0.468750 0.562500
vt 0.484375 1.000000
vt 0.468750 0.937500
vt 0.468750 0.875000
vt 0.468750 0.812500
vt 0.437500 0.937500
vt 0.437500 0.875000
vt 0.437500 0.812500
vt 0.437500 0.750000
vt 0.437500 0.687500
vt 0.437500 0.625000
vt 0.437500 0.562500
vt 0.453125 1.000000
vt 0.406250 0.687500
vt 0.406250 0.625000
vt 0.406250 0.562500
vt 0.421875 1.000000
vt 0.406250 0.937500
vt 0.406250 0.875000
vt 0.406250 0.812500
vt 0.406250 0.750000
vt 0.375000 0.937500
vt 0.375000 0.875000
vt 0.375000 0.812500
vt 0.375000 0.750000
vt 0.375000 0.687500
vt 0.375000 0.625000
vt 0.375000 0.562500
vt 0.390625 1.000000
vt 0.343750 0.687500
vt 0.343750 0.625000
vt 0.343750 0.562500
vt 0.359375 1.000000
vt 0.343750 0.937500
vt 0.343750 0.875000
vt 0.343750 0.812500
vt 0.343750 0.750000
vt 0.312500 0.875000
vt 0.312500 0.812500
vt 0.312500 0.750000
vt 0.312500 0.687500
vt 0.312500 0.625000
vt 0.312500 0.562500
vt 0.328125 1.000000
vt 0.312500 0.937500
vt 0.281250 0.625000
vt 0.281250 0.562500
vt 0.296875 1.000000
vt 0.281250 0.937500
vt 0.281250 0.875000
vt 0.281250 0.812500
vt 0.281250 0.750000
vt 0.281250 0.687500
vt 0.250000 0.875000
vt 0.250000 0.812500
vt 0.250000 0.750000
vt 0.250000 0.687500
vt 0.250000 0.625000
vt 0.250000 0.562500
vt 0.265625 1.000000
vt 0.250000 0.937500
vt 0.218750 0.625000
vt 0.218750 0.562500
vt 0.234375 1.000000
vt 0.218750 0.937500
vt 0.218750 0.875000
vt 0.218750 0.812500
vt 0.218750 0.750000
vt 0.218750 0.687500
vt 0.187500 0.812500
vt 0.187500 0.750000
vt 0.187500 0.687500
vt 0.187500 0.625000
vt 0.187500 0.562500
vt 0.203125 1.000000
vt 0.187500 0.937500
vt 0.187500 0.875000
vt 0.171875 1.000000
vt 0.156250 0.937500
vt 0.156250 0.875000
vt 0.156250 0.812500
vt 0.156250 0.750000
vt 0.156250 0.687500
vt 0.156250 0.625000
vt 0.156250 0.562500
vt 0.125000 0.750000
vt 0.125000 0.687500
vt 0.125000 0.625000
vt 0.125000 0.562500
vt 0.140625 1.000000
vt 0.125000 0.937500
vt 0.125000 0.875000
vt 0.125000 0.812500
vt 0.109375 1.000000
vt 0.093750 0.937500
vt 0.093750 0.875000
vt 0.093750 0.812500
vt 0.093750 0.750000
vt 0.093750 0.687500
vt 0.093750 0.625000
vt 0.093750 0.562500
vt 0.062500 0.750000
vt 0.062500 0.687500
vt 0.062500 0.625000
vt 0.062500 0.562500
vt 0.078125 1.000000
vt 0.062500 0.937500
vt 0.062500 0.875000
vt 0.062500 0.812500
vt 0.031250 0.937500
vt 0.031250 0.875000
vt 0.031250 0.812500
vt 0.031250 0.750000
vt 0.031250 0.687500
vt 0.031250 0.625000
vt 0.031250 0.562500
vt 0.046875 1.000000
vt 0.000000 0.687500
vt 0.000000 0.625000
vt 0.000000 0.562500
vt 0.015625 1.000000
vt 0.000000 0.937500
vt 0.000000 0.875000
vt 0.000000 0.812500
vt 0.000000 0.750000
vt 1.000000 0.875000
vt 1.000000 0.937500
vt 0.968750 0.937500
vt 0.968750 0.875000
vt 1.000000 0.812500
vt 0.968750 0.812500
vt 1.000000 0.750000
vt 0.968750 0.750000
vt 1.000000 0.687500
vt 0.968750 0.687500
vt 1.000000 0.625000
vt 0.968750 0.625000
vt 1.000000 0.562500
vt 0.968750 0.562500
vt 0.984375 1.000000
vt 0.937500 0.687500
vt 0.937500 0.625000
vt 0.937500 0.562500
vt 0.953125 1.000000
vt 0.937500 0.937500
vt 0.937500 0.875000
vt 0.937500 0.812500
vt 0.937500 0.750000
vt 0.906250 0.875000
vt 0.906250 0.812500
vt 0.906250 0.750000
vt 0.906250 0.687500
vt 0.906250 0.625000
vt 0.906250 0.562500
vt 0.921875 1.000000
vt 0.906250 0.937500
vt 0.875000 0.625000
vt 0.875000 0.562500
vt 0.890625 1.000000
vt 0.875000 0.937500
vt 0.875000 0.875000
vt 0.875000 0.812500
vt 0.875000 0.750000
vt 0.875000 0.687500
vt 0.843750 0.812500
vt 0.843750 0.750000
vt 0.843750 0.687500
vt 0.843750 0.625000
vt 0.843750 0.562500
vt 0.859375 1.000000
vt 0.843750 0.937500
vt 0.843750 0.875000
vt 0.828125 1.000000
vt 0.812500 0.937500
vt 0.812500 0.875000
vt 0.812500 0.812500
vt 0.812500 0.750000
vt 0.812500 0.687500
vt 0.812500 0.625000
vt 0.812500 0.562500
vt 0.781250 0.812500
vt 0.781250 0.750000
vt 0.781250 0.687500
vt 0.781250 0.625000
vt 0.781250 0.562500
vt 0.796875 1.000000
vt 0.781250 0.937500
vt 0.781250 0.875000
vt 0.765625 1.000000
vt 1.000000 0.500000
vt 1.000000 1.000000
vt 0.968750 1.000000
vt 0.968750 0.500000
vt 0.937500 1.000000
vt 0.937500 0.500000
vt 0.906250 1.000000
vt 0.906250 0.500000
vt 0.875000 1.000000
vt 0.875000 0.500000
vt 0.843750 1.000000
vt 0.843750 0.500000
vt 0.812500 1.000000
vt 0.812500 0.500000
vt 0.781250 1.000000
vt 0.781250 0.500000
vt 0.750000 1.000000
vt 0.750000 0.500000
vt 0.718750 1.000000
vt 0.718750 0.500000
vt 0.687500 1.000000
vt 0.687500 0.500000
vt 0.656250 1.000000
vt 0.656250 0.500000
vt 0.625000 1.000000
vt 0.625000 0.500000
vt 0.593750 1.000000
vt 0.593750 0.500000
vt 0.562500 1.000000
vt 0.562500 0.500000
vt 0.531250 1.000000
vt 0.531250 0.500000
vt 0.500000 1.000000
vt 0.500000 0.500000
vt 0.468750 1.000000
vt 0.468750 0.500000
vt 0.437500 1.000000
vt 0.437500 0.500000
vt 0.406250 1.000000
vt 0.406250 0.500000
vt 0.375000 1.000000
vt 0.375000 0.500000
vt 0.343750 1.000000
vt 0.343750 0.500000
vt 0.312500 1.000000
vt 0.312500 0.500000
vt 0.281250 1.000000
vt 0.281250 0.500000
vt 0.250000 1.000000
vt 0.250000 0.500000
vt 0.218750 1.000000
vt 0.218750 0.500000
vt 0.187500 1.000000
vt 0.187500 0.500000
vt 0.156250 1.000000
vt 0.156250 0.500000
vt 0.125000 1.000000
vt 0.125000 0.500000
vt 0.093750 1.000000
vt 0.093750 0.500000
vt 0.062500 1.000000
vt 0.062500 0.500000
vt 0.296822 0.485388
vt 0.250000 0.490000
vt 0.203178 0.485388
vt 0.158156 0.471731
vt 0.116663 0.449553
vt 0.080294 0.419706
vt 0.050447 0.383337
vt 0.028269 0.341844
vt 0.014612 0.296822
vt 0.010000 0.250000
vt 0.014612 0.203178
vt 0.028269 0.158156
vt 0.050447 0.116663
vt 0.080294 0.080294
vt 0.116663 0.050447
vt 0.158156 0.028269
vt 0.203178 0.014612
vt 0.250000 0.010000
vt 0.296822 0.014612
vt 0.341844 0.028269
vt 0.383337 0.050447
vt 0.419706 0.080294
vt 0.449553 0.116663
vt 0.471731 0.158156
vt 0.485388 0.203178
vt 0.490000 0.250000
vt 0.485388 0.296822
vt 0.471731 0.341844
vt 0.449553 0.383337
vt 0.419706 0.419706
vt 0.383337 0.449553
vt 0.341844 0.471731
vt 0.031250 1.000000
vt 0.031250 0.500000
vt 0.000000 1.000000
vt 0.000000 0.500000
vt 0.750000 0.490000
vt 0.796822 0.485388
vt 0.841844 0.471731
vt 0.883337 0.449553
vt 0.919706 0.419706
vt 0.949553 0.383337
vt 0.971731 0.341844
vt 0.985388 0.296822
vt 0.990000 0.250000
vt 0.985388 0.203178
vt 0.971731 0.158156
vt 0.949553 0.116663
vt 0.919706 0.080294
vt 0.883337 0.050447
vt 0.841844 0.028269
vt 0.796822 0.014612
vt 0.750000 0.010000
vt 0.703178 0.014612
vt 0.658156 0.028269
vt 0.616663 0.050447
vt 0.580294 0.080294
vt 0.550447 0.116663
vt 0.528269 0.158156
vt 0.514612 0.203178
vt 0.510000 0.250000
vt 0.514612 0.296822
vt 0.528269 0.341844
vt 0.550447 0.383337
vt 0.580294 0.419706
vt 0.616663 0.449553
vt 0.658156 0.471731
vt 0.703178 0.485388
s 1
usemtl Metal
f 494/209/435 273/210/214 277/211/218
f 495/212/436 494/209/435 277/211/218 278/213/219
f 274/214/215 495/212/436 278/213/219 279/215/220
f 496/216/437 274/214/215 279/215/220 280/217/221
f 275/218/216 496/216/437 280/217/221 281/219/222
f 497/220/438 275/218/216 281/219/222 282/221/223
f 276/222/217 497/220/438 282/221/223 283/223/224
f 283/223/224 282/221/223 289/224/230 290/225/231
f 277/211/218 273/226/214 284/227/225
f 278/213/219 277/211/218 284/227/225 285/228/226
f 279/215/220 278/213/219 285/228/226 286/229/227
f 280/217/221 279/215/220 286/229/227 287/230/228
f 281/219/222 280/217/221 287/230/228 288/231/229
f 282/221/223 281/219/222 288/231/229 289/224/230
f 286/229/227 285/228/226 292/232/233 293/233/234
f 287/230/228 286/229/227 293/233/234 294/234/235
f 288/231/229 287/230/228 294/234/235 295/235/236
f 289/224/230 288/231/229 295/235/236 296/236/237
f 290/225/231 289/224/230 296/236/237 297/237/238
f 284/227/225 273/238/214 291/239/232
f 285/228/226 284/227/225 291/239/232 292/232/233
f 297/237/238 296/236/237 303/240/244 304/241/245
f 291/239/232 273/242/214 298/243/239
f 292/232/233 291/239/232 298/243/239 299/244/240
f 293/233/234 292/232/233 299/244/240 300/245/241
f 294/234/235 293/233/234 300/245/241 301/246/242
f 295/235/236 294/234/235 301/246/242 302/247/243
f 296/236/237 295/235/236 302/247/243 303/240/244
f 301/246/242 300/245/241 307/248/248 308/249/249
f 302/247/243 301/246/242 308/249/249 309/250/250
f 303/240/244 302/247/243 309/250/250 310/251/251
f 304/241/245 303/240/244 310/251/251 311/252/252
f 298/243/239 273/253/214 305/254/246
f 299/244/240 298/243/239 305/254/246 306/255/247
f 300/245/241 299/244/240 306/255/247 307/248/248
f 305/254/246 273/256/214 312/257/253
f 306/255/247 305/254/246 312/257/253 313/258/254
f 307/248/248 306/255/247 313/258/254 314/259/255
f 308/249/249 307/248/248 314/259/255 315/260/256
f 309/250/250 308/249/249 315/260/256 316/261/257
f 310/251/251 309/250/250 316/261/257 317/262/258
f 311/252/252 310/251/251 317/262/258 318/263/259
f 315/260/256 314/259/255 321/264/262 322/265/263
f 316/261/257 315/260/256 322/265/263 323/266/264
f 317/262/258 316/261/257 323/266/264 324/267/265
f 318/263/259 317/262/258 324/267/265 325/268/266
f 312/257/253 273/269/214 319/270/260
f 313/258/254 312/257/253 319/270/260 320/271/261
f 314/259/255 313/258/254 320/271/261 321/264/262
f 319/270/260 273/272/214 326/273/267
f 320/271/261 319/270/260 326/273/267 327/274/268
f 321/264/262 320/271/261 327/274/268 328/275/269
f 322/265/263 321/264/262 328/275/269 329/276/270
f 323/266/264 322/265/263 329/276/270 330/277/271
f 324/267/265 323/266/264 330/277/271 331/278/272
f 325/268/266 324/267/265 331/278/272 332/279/273
f 330/277/271 329/276/270 336/280/277 337/281/278
f 331/278/272 330/277/271 337/281/278 338/282/279
f 332/279/273 331/278/272 338/282/279 339/283/280
f 326/273/267 273/284/214 333/285/274
f 327/274/268 326/273/267 333/285/274 334/286/275
f 328/275/269 327/274/268 334/286/275 335/287/276
f 329/276/270 328/275/269 335/287/276 336/280/277
f 334/286/275 333/285/274 340/288/281 341/289/282
f 335/287/276 334/286/275 341/289/282 342/290/283
f 336/280/277 335/287/276 342/290/283 343/291/284
f 337/281/278 336/280/277 343/291/284 344/292/285
f 338/282/279 337/281/278 344/292/285 345/293/286
f 339/283/280 338/282/279 345/293/286 346/294/287
f 333/285/274 273/295/214 340/288/281
f 345/293/286 344/292/285 351/296/292 352/297/293
f 346/294/287 345/293/286 352/297/293 353/298/294
f 340/288/281 273/299/214 347/300/288
f 341/289/282 340/288/281 347/300/288 348/301/289
f 342/290/283 341/289/282 348/301/289 349/302/290
f 343/291/284 342/290/283 349/302/290 350/303/291
f 344/292/285 343/291/284 350/303/291 351/296/292
f 348/301/289 347/300/288 354/304/295 355/305/296
f 349/302/290 348/301/289 355/305/296 356/306/297
f 350/303/291 349/302/290 356/306/297 357/307/298
f 351/296/292 350/303/291 357/307/298 358/308/299
f 352/297/293 351/296/292 358/308/299 359/309/300
f 353/298/294 352/297/293 359/309/300 360/310/301
f 347/300/288 273/311/214 354/304/295
f 359/309/300 358/308/299 365/312/306 366/313/307
f 360/310/301 359/309/300 366/313/307 367/314/308
f 354/304/295 273/315/214 361/316/302
f 355/305/296 354/304/295 361/316/302 362/317/303
f 356/306/297 355/305/296 362/317/303 363/318/304
f 357/307/298 356/306/297 363/318/304 364/319/305
f 358/308/299 357/307/298 364/319/305 365/312/306
f 363/318/304 362/317/303 369/320/310 370/321/311
f 364/319/305 363/318/304 370/321/311 371/322/312
f 365/312/306 364/319/305 371/322/312 372/323/313
f 366/313/307 365/312/306 372/323/313 373/324/314
f 367/314/308 366/313/307 373/324/314 374/325/315
f 361/316/302 273/326/214 368/327/309
f 362/317/303 361/316/302 368/327/309 369/320/310
f 374/325/315 373/324/314 380/328/321 381/329/322
f 368/327/309 273/330/214 375/331/316
f 369/320/310 368/327/309 375/331/316 376/332/317
f 370/321/311 369/320/310 376/332/317 377/333/318
f 371/322/312 370/321/311 377/333/318 378/334/319
f 372/323/313 371/322/312 378/334/319 379/335/320
f 373/324/314 372/323/313 379/335/320 380/328/321
f 377/333/318 376/332/317 383/336/324 384/337/325
f 378/334/319 377/333/318 384/337/325 385/338/326
f 379/335/320 378/334/319 385/338/326 386/339/327
f 380/328/321 379/335/320 386/339/327 387/340/328
f 381/329/322 380/328/321 387/340/328 388/341/329
f 375/331/316 273/342/214 382/343/323
f 376/332/317 375/331/316 382/343/323 383/336/324
f 388/341/329 387/340/328 394/344/335 395/345/336
f 382/343/323 273/346/214 389/347/330
f 383/336/324 382/343/323 389/347/330 390/348/331
f 384/337/325 383/336/324 390/348/331 391/349/332
f 385/338/326 384/337/325 391/349/332 392/350/333
f 386/339/327 385/338/326 392/350/333 393/351/334
f 387/340/328 386/339/327 393/351/334 394/344/335
f 392/350/333 391/349/332 398/352/339 399/353/340
f 393/351/334 392/350/333 399/353/340 400/354/341
f 394/344/335 393/351/334 400/354/341 401/355/342
f 395/345/336 394/344/335 401/355/342 402/356/343
f 389/347/330 273/357/214 396/358/337
f 390/348/331 389/347/330 396/358/337 397/359/338
f 391/349/332 390/348/331 397/359/338 398/352/339
f 396/358/337 273/360/214 403/361/344
f 397/359/338 396/358/337 403/361/344 404/362/345
f 398/352/339 397/359/338 404/362/345 405/363/346
f 399/353/340 398/352/339 405/363/346 406/364/347
f 400/354/341 399/353/340 406/364/347 407/365/348
f 401/355/342 400/354/341 407/365/348 408/366/349
f 402/356/343 401/355/342 408/366/349 409/367/350
f 407/365/348 406/364/347 413/368/354 414/369/355
f 408/366/349 407/365/348 414/369/355 415/370/356
f 409/367/350 408/366/349 415/370/356 416/371/357
f 403/361/344 273/372/214 410/373/351
f 404/362/345 403/361/344 410/373/351 411/374/352
f 405/363/346 404/362/345 411/374/352 412/375/353
f 406/364/347 405/363/346 412/375/353 413/368/354
f 410/373/351 273/376/214 417/377/358
f 411/374/352 410/373/351 417/377/358 418/378/359
f 412/375/353 411/374/352 418/378/359 419/379/360
f 413/368/354 412/375/353 419/379/360 420/380/361
f 414/369/355 413/368/354 420/380/361 421/381/362
f 415/370/356 414/369/355 421/381/362 422/382/363
f 416/371/357 415/370/356 422/382/363 423/383/364
f 421/381/362 420/380/361 427/384/368 428/385/369
f 422/382/363 421/381/362 428/385/369 429/386/370
f 423/383/364 422/382/363 429/386/370 430/387/371
f 417/377/358 273/388/214 424/389/365
f 418/378/359 417/377/358 424/389/365 425/390/366
f 419/379/360 418/378/359 425/390/366 426/391/367
f 420/380/361 419/379/360 426/391/367 427/384/368
f 425/390/366 424/389/365 431/392/372 432/393/373
f 426/391/367 425/390/366 432/393/373 433/394/374
f 427/384/368 426/391/367 433/394/374 434/395/375
f 428/385/369 427/384/368 434/395/375 435/396/376
f 429/386/370 428/385/369 435/396/376 436/397/377
f 430/387/371 429/386/370 436/397/377 437/398/378
f 424/389/365 273/399/214 431/392/372
f 436/397/377 435/396/376 442/400/383 443/401/384
f 437/398/378 436/397/377 443/401/384 444/402/385
f 431/392/372 273/403/214 438/404/379
f 432/393/373 431/392/372 438/404/379 439/405/380
f 433/394/374 432/393/373 439/405/380 440/406/381
f 434/395/375 433/394/374 440/406/381 441/407/382
f 435/396/376 434/395/375 441/407/382 442/400/383
f 439/408/380 438/409/379 445/410/386 446/411/387
f 440/412/381 439/408/380 446/411/387 447/413/388
f 441/414/382 440/412/381 447/413/388 448/415/389
f 442/416/383 441/414/382 448/415/389 449/417/390
f 443/418/384 442/416/383 449/417/390 450/419/391
f 444/420/385 443/418/384 450/419/391 451/421/392
f 438/409/379 273/422/214 445/410/386
f 450/419/391 449/417/390 456/423/397 457/424/398
f 451/421/392 450/419/391 457/424/398 458/425/399
f 445/410/386 273/426/214 452/427/393
f 446/411/387 445/410/386 452/427/393 453/428/394
f 447/413/388 446/411/387 453/428/394 454/429/395
f 448/415/389 447/413/388 454/429/395 455/430/396
f 449/417/390 448/415/389 455/430/396 456/423/397
f 454/429/395 453/428/394 460/431/401 461/432/402
f 455/430/396 454/429/395 461/432/402 462/433/403
f 456/423/397 455/430/396 462/433/403 463/434/404
f 457/424/398 456/423/397 463/434/404 464/435/405
f 458/425/399 457/424/398 464/435/405 465/436/406
f 452/427/393 273/437/214 459/438/400
f 453/428/394 452/427/393 459/438/400 460/431/401
f 465/436/406 464/435/405 471/439/412 472/440/413
f 459/438/400 273/441/214 466/442/407
f 460/431/401 459/438/400 466/442/407 467/443/408
f 461/432/402 460/431/401 467/443/408 468/444/409
f 462/433/403 461/432/402 468/444/409 469/445/410
f 463/434/404 462/433/403 469/445/410 470/446/411
f 464/435/405 463/434/404 470/446/411 471/439/412
f 469/445/410 468/444/409 475/447/416 476/448/417
f 470/446/411 469/445/410 476/448/417 477/449/418
f 471/439/412 470/446/411 477/449/418 478/450/419
f 472/440/413 471/439/412 478/450/419 479/451/420
f 466/442/407 273/452/214 473/453/414
f 467/443/408 466/442/407 473/453/414 474/454/415
f 468/444/409 467/443/408 474/454/415 475/447/416
f 473/453/414 273/455/214 480/456/421
f 474/454/415 473/453/414 480/456/421 481/457/422
f 475/447/416 474/454/415 481/457/422 482/458/423
f 476/448/417 475/447/416 482/458/423 483/459/424
f 477/449/418 476/448/417 483/459/424 484/460/425
f 478/450/419 477/449/418 484/460/425 485/461/426
f 479/451/420 478/450/419 485/461/426 486/462/427
f 483/459/424 482/458/423 489/463/430 490/464/431
f 484/460/425 483/459/424 490/464/431 491/465/432
f 485/461/426 484/460/425 491/465/432 492/466/433
f 486/462/427 485/461/426 492/466/433 493/467/434
f 480/456/421 273/468/214 487/469/428
f 481/457/422 480/456/421 487/469/428 488/470/429
f 482/458/423 481/457/422 488/470/429 489/463/430
f 487/469/428 273/471/214 494/209/435
f 488/470/429 487/469/428 494/209/435 495/212/436
f 489/463/430 488/470/429 495/212/436 274/214/215
f 490/464/431 489/463/430 274/214/215 496/216/437
f 491/465/432 490/464/431 496/216/437 275/218/216
f 492/466/433 491/465/432 275/218/216 497/220/438
f 493/467/434 492/466/433 497/220/438 276/222/217
f 498/472/439 499/473/440 501/474/442 500/475/441
f 500/475/441 501/474/442 503/476/444 502/477/443
f 502/477/443 503/476/444 505/478/446 504/479/445
f 504/479/445 505/478/446 507/480/448 506/481/447
f 506/481/447 507/480/448 509/482/450 508/483/449
f 508/483/449 509/482/450 511/484/452 510/485/451
f 510/485/451 511/484/452 513/486/454 512/487/453
f 512/487/453 513/486/454 515/488/456 514/489/455
f 514/489/455 515/488/456 517/490/458 516/491/457
f 516/491/457 517/490/458 519/492/460 518/493/459
f 518/493/459 519/492/460 521/494/462 520/495/461
f 520/495/461 521/494/462 523/496/464 522/497/463
f 522/497/463 523/496/464 525/498/466 524/499/465
f 524/499/465 525/498/466 527/500/468 526/501/467
f 526/501/467 527/500/468 529/502/470 528/503/469
f 528/503/469 529/502/470 531/504/472 530/505/471
f 530/505/471 531/504/472 533/506/474 532/507/473
f 532/507/473 533/506/474 535/508/476 534/509/475
f 534/509/475 535/508/476 537/510/478 536/511/477
f 536/511/477 537/510/478 539/512/480 538/513/479
f 538/513/479 539/512/480 541/514/482 540/515/481
f 540/515/481 541/514/482 543/516/484 542/517/483
f 542/517/483 543/516/484 545/518/486 544/519/485
f 544/519/485 545/518/486 547/520/488 546/521/487
f 546/521/487 547/520/488 549/522/490 548/523/489
f 548/523/489 549/522/490 551/524/492 550/525/491
f 550/525/491 551/524/492 553/526/494 552/527/493
f 552/527/493 553/526/494 555/528/496 554/529/495
f 554/529/495 555/528/496 557/530/498 556/531/497
f 556/531/497 557/530/498 559/532/500 558/533/499
f 501/534/442 499/535/440 561/536/502 559/537/500 557/538/498 555/539/496 553/540/494 551/541/492 549/542/490 547/543/488 545/544/486 543/545/484 541/546/482 539/547/480 537/548/478 535/549/476 533/550/474 531/551/472 529/552/470 527/553/468 525/554/466 523/555/464 521/556/462 519/557/460 517/558/458 515/559/456 513/560/454 511/561/452 509/562/450 507/563/448 505/564/446 503/565/444
f 558/533/499 559/532/500 561/566/502 560/567/501
f 560/567/501 561/566/502 499/568/440 498/569/439
f 498/570/439 500/571/441 502/572/443 504/573/445 506/574/447 508/575/449 510/576/451 512/577/453 514/578/455 516/579/457 518/580/459 520/581/461 522/582/463 524/583/465 526/584/467 528/585/469 530/586/471 532/587/473 534/588/475 536/589/477 538/590/479 540/591/481 542/592/483 544/593/485 546/594/487 548/595/489 550/596/491 552/597/493 554/598/495 556/599/497 558/600/499 560/601/501
f 783/209/724 566/211/507 562/210/503
f 784/212/725 567/213/508 566/211/507 783/209/724
f 563/214/504 568/215/509 567/213/508 784/212/725
f 785/216/726 569/217/510 568/215/509 563/214/504
f 564/218/505 570/219/511 569/217/510 785/216/726
f 786/220/727 571/221/512 570/219/511 564/218/505
f 565/222/506 572/223/513 571/221/512 786/220/727
f 572/223/513 579/225/520 578/224/519 571/221/512
f 566/211/507 573/227/514 562/226/503
f 567/213/508 574/228/515 573/227/514 566/211/507
f 568/215/509 575/229/516 574/228/515 567/213/508
f 569/217/510 576/230/517 575/229/516 568/215/509
f 570/219/511 577/231/518 576/230/517 569/217/510
f 571/221/512 578/224/519 577/231/518 570/219/511
f 575/229/516 582/233/523 581/232/522 574/228/515
f 576/230/517 583/234/524 582/233/523 575/229/516
f 577/231/518 584/235/525 583/234/524 576/230/517
f 578/224/519 585/236/526 584/235/525 577/231/518
f 579/225/520 586/237/527 585/236/526 578/224/519
f 573/227/514 580/239/521 562/238/503
f 574/228/515 581/232/522 580/239/521 573/227/514
f 586/237/527 593/241/534 592/240/533 585/236/526
f 580/239/521 587/243/528 562/242/503
f 581/232/522 588/244/529 587/243/528 580/239/521
f 582/233/523 589/245/530 588/244/529 581/232/522
f 583/234/524 590/246/531 589/245/530 582/233/523
f 584/235/525 591/247/532 590/246/531 583/234/524
f 585/236/526 592/240/533 591/247/532 584/235/525
f 590/246/531 597/249/538 596/248/537 589/245/530
f 591/247/532 598/250/539 597/249/538 590/246/531
f 592/240/533 599/251/540 598/250/539 591/247/532
f 593/241/534 600/252/541 599/251/540 592/240/533
f 587/243/528 594/254/535 562/253/503
f 588/244/529 595/255/536 594/254/535 587/243/528
f 589/245/530 596/248/537 595/255/536 588/244/529
f 594/254/535 601/257/542 562/256/503
f 595/255/536 602/258/543 601/257/542 594/254/535
f 596/248/537 603/259/544 602/258/543 595/255/536
f 597/249/538 604/260/545 603/259/544 596/248/537
f 598/250/539 605/261/546 604/260/545 597/249/538
f 599/251/540 606/262/547 605/261/546 598/250/539
f 600/252/541 607/263/548 606/262/547 599/251/540
f 604/260/545 611/265/552 610/264/551 603/259/544
f 605/261/546 612/266/553 611/265/552 604/260/545
f 606/262/547 613/267/554 612/266/553 605/261/546
f 607/263/548 614/268/555 613/267/554 606/262/547
f 601/257/542 608/270/549 562/269/503
f 602/258/543 609/271/550 608/270/549 601/257/542
f 603/259/544 610/264/551 609/271/550 602/258/543
f 608/270/549 615/273/556 562/272/503
f 609/271/550 616/274/557 615/273/556 608/270/549
f 610/264/551 617/275/558 616/274/557 609/271/550
f 611/265/552 618/276/559 617/275/558 610/264/551
f 612/266/553 619/277/560 618/276/559 611/265/552
f 613/267/554 620/278/561 619/277/560 612/266/553
f 614/268/555 621/279/562 620/278/561 613/267/554
f 619/277/560 626/281/567 625/280/566 618/276/559
f 620/278/561 627/282/568 626/281/567 619/277/560
f 621/279/562 628/283/569 627/282/568 620/278/561
f 615/273/556 622/285/563 562/284/503
f 616/274/557 623/286/564 622/285/563 615/273/556
f 617/275/558 624/287/565 623/286/564 616/274/557
f 618/276/559 625/280/566 624/287/565 617/275/558
f 623/286/564 630/289/571 629/288/570 622/285/563
f 624/287/565 631/290/572 630/289/571 623/286/564
f 625/280/566 632/291/573 631/290/572 624/287/565
f 626/281/567 633/292/574 632/291/573 625/280/566
f 627/282/568 634/293/575 633/292/574 626/281/567
f 628/283/569 635/294/576 634/293/575 627/282/568
f 622/285/563 629/288/570 562/295/503
f 634/293/575 641/297/582 640/296/581 633/292/574
f 635/294/576 642/298/583 641/297/582 634/293/575
f 629/288/570 636/300/577 562/299/503
f 630/289/571 637/301/578 636/300/577 629/288/570
f 631/290/572 638/302/579 637/301/578 630/289/571
f 632/291/573 639/303/580 638/302/579 631/290/572
f 633/292/574 640/296/581 639/303/580 632/291/573
f 637/301/578 644/305/585 643/304/584 636/300/577
f 638/302/579 645/306/586 644/305/585 637/301/578
f 639/303/580 646/307/587 645/306/586 638/302/579
f 640/296/581 647/308/588 646/307/587 639/303/580
f 641/297/582 648/309/589 647/308/588 640/296/581
f 642/298/583 649/310/590 648/309/589 641/297/582
f 636/300/577 643/304/584 562/311/503
f 648/309/589 655/313/596 654/312/595 647/308/588
f 649/310/590 656/314/597 655/313/596 648/309/589
f 643/304/584 650/316/591 562/315/503
f 644/305/585 651/317/592 650/316/591 643/304/584
f 645/306/586 652/318/593 651/317/592 644/305/585
f 646/307/587 653/319/594 652/318/593 645/306/586
f 647/308/588 654/312/595 653/319/594 646/307/587
f 652/318/593 659/321/600 658/320/599 651/317/592
f 653/319/594 660/322/601 659/321/600 652/318/593
f 654/312/595 661/323/602 660/322/601 653/319/594
f 655/313/596 662/324/603 661/323/602 654/312/595
f 656/314/597 663/325/604 662/324/603 655/313/596
f 650/316/591 657/327/598 562/326/503
f 651/317/592 658/320/599 657/327/598 650/316/591
f 663/325/604 670/329/611 669/328/610 662/324/603
f 657/327/598 664/331/605 562/330/503
f 658/320/599 665/332/606 664/331/605 657/327/598
f 659/321/600 666/333/607 665/332/606 658/320/599
f 660/322/601 667/334/608 666/333/607 659/321/600
f 661/323/602 668/335/609 667/334/608 660/322/601
f 662/324/603 669/328/610 668/335/609 661/323/602
f 666/333/607 673/337/614 672/336/613 665/332/606
f 667/334/608 674/338/615 673/337/614 666/333/607
f 668/335/609 675/339/616 674/338/615 667/334/608
f 669/328/610 676/340/617 675/339/616 668/335/609
f 670/329/611 677/341/618 676/340/617 669/328/610
f 664/331/605 671/343/612 562/342/503
f 665/332/606 672/336/613 671/343/612 664/331/605
f 677/341/618 684/345/625 683/344/624 676/340/617
f 671/343/612 678/347/619 562/346/503
f 672/336/613 679/348/620 678/347/619 671/343/612
f 673/337/614 680/349/621 679/348/620 672/336/613
f 674/338/615 681/350/622 680/349/621 673/337/614
f 675/339/616 682/351/623 681/350/622 674/338/615
f 676/340/617 683/344/624 682/351/623 675/339/616
f 681/350/622 688/353/629 687/352/628 680/349/621
f 682/351/623 689/354/630 688/353/629 681/350/622
f 683/344/624 690/355/631 689/354/630 682/351/623
f 684/345/625 691/356/632 690/355/631 683/344/624
f 678/347/619 685/358/626 562/357/503
f 679/348/620 686/359/627 685/358/626 678/347/619
f 680/349/621 687/352/628 686/359/627 679/348/620
f 685/358/626 692/361/633 562/360/503
f 686/359/627 693/362/634 692/361/633 685/358/626
f 687/352/628 694/363/635 693/362/634 686/359/627
f 688/353/629 695/364/636 694/363/635 687/352/628
f 689/354/630 696/365/637 695/364/636 688/353/629
f 690/355/631 697/366/638 696/365/637 689/354/630
f 691/356/632 698/367/639 697/366/638 690/355/631
f 696/365/637 703/369/644 702/368/643 695/364/636
f 697/366/638 704/370/645 703/369/644 696/365/637
f 698/367/639 705/371/646 704/370/645 697/366/638
f 692/361/633 699/373/640 562/372/503
f 693/362/634 700/374/641 699/373/640 692/361/633
f 694/363/635 701/375/642 700/374/641 693/362/634
f 695/364/636 702/368/643 701/375/642 694/363/635
f 699/373/640 706/377/647 562/376/503
f 700/374/641 707/378/648 706/377/647 699/373/640
f 701/375/642 708/379/649 707/378/648 700/374/641
f 702/368/643 709/380/650 708/379/649 701/375/642
f 703/369/644 710/381/651 709/380/650 702/368/643
f 704/370/645 711/382/652 710/381/651 703/369/644
f 705/371/646 712/383/653 711/382/652 704/370/645
f 710/381/651 717/385/658 716/384/657 709/380/650
f 711/382/652 718/386/659 717/385/658 710/381/651
f 712/383/653 719/387/660 718/386/659 711/382/652
f 706/377/647 713/389/654 562/388/503
f 707/378/648 714/390/655 713/389/654 706/377/647
f 708/379/649 715/391/656 714/390/655 707/378/648
f 709/380/650 716/384/657 715/391/656 708/379/649
f 714/390/655 721/393/662 720/392/661 713/389/654
f 715/391/656 722/394/663 721/393/662 714/390/655
f 716/384/657 723/395/664 722/394/663 715/391/656
f 717/385/658 724/396/665 723/395/664 716/384/657
f 718/386/659 725/397/666 724/396/665 717/385/658
f 719/387/660 726/398/667 725/397/666 718/386/659
f 713/389/654 720/392/661 562/399/503
f 725/397/666 732/401/673 731/400/672 724/396/665
f 726/398/667 733/402/674 732/401/673 725/397/666
f 720/392/661 727/404/668 562/403/503
f 721/393/662 728/405/669 727/404/668 720/392/661
f 722/394/663 729/406/670 728/405/669 721/393/662
f 723/395/664 730/407/671 729/406/670 722/394/663
f 724/396/665 731/400/672 730/407/671 723/395/664
f 728/408/669 735/411/676 734/410/675 727/409/668
f 729/412/670 736/413/677 735/411/676 728/408/669
f 730/414/671 737/415/678 736/413/677 729/412/670
f 731/416/672 738/417/679 737/415/678 730/414/671
f 732/418/673 739/419/680 738/417/679 731/416/672
f 733/420/674 740/421/681 739/419/680 732/418/673
f 727/409/668 734/410/675 562/422/503
f 739/419/680 746/424/687 745/423/686 738/417/679
f 740/421/681 747/425/688 746/424/687 739/419/680
f 734/410/675 741/427/682 562/426/503
f 735/411/676 742/428/683 741/427/682 734/410/675
f 736/413/677 743/429/684 742/428/683 735/411/676
f 737/415/678 744/430/685 743/429/684 736/413/677
f 738/417/679 745/423/686 744/430/685 737/415/678
f 743/429/684 750/432/691 749/431/690 742/428/683
f 744/430/685 751/433/692 750/432/691 743/429/684
f 745/423/686 752/434/693 751/433/692 744/430/685
f 746/424/687 753/435/694 752/434/693 745/423/686
f 747/425/688 754/436/695 753/435/694 746/424/687
f 741/427/682 748/438/689 562/437/503
f 742/428/683 749/431/690 748/438/689 741/427/682
f 754/436/695 761/440/702 760/439/701 753/435/694
f 748/438/689 755/442/696 562/441/503
f 749/431/690 756/443/697 755/442/696 748/438/689
f 750/432/691 757/444/698 756/443/697 749/431/690
f 751/433/692 758/445/699 757/444/698 750/432/691
f 752/434/693 759/446/700 758/445/699 751/433/692
f 753/435/694 760/439/701 759/446/700 752/434/693
f 758/445/699 765/448/706 764/447/705 757/444/698
f 759/446/700 766/449/707 765/448/706 758/445/699
f 760/439/701 767/450/708 766/449/707 759/446/700
f 761/440/702 768/451/709 767/450/708 760/439/701
f 755/442/696 762/453/703 562/452/503
f 756/443/697 763/454/704 762/453/703 755/442/696
f 757/444/698 764/447/705 763/454/704 756/443/697
f 762/453/703 769/456/710 562/455/503
f 763/454/704 770/457/711 769/456/710 762/453/703
f 764/447/705 771/458/712 770/457/711 763/454/704
f 765/448/706 772/459/713 771/458/712 764/447/705
f 766/449/707 773/460/714 772/459/713 765/448/706
f 767/450/708 774/461/715 773/460/714 766/449/707
f 768/451/709 775/462/716 774/461/715 767/450/708
f 772/459/713 779/464/720 778/463/719 771/458/712
f 773/460/714 780/465/721 779/464/720 772/459/713
f 774/461/715 781/466/722 780/465/721 773/460/714
f 775/462/716 782/467/723 781/466/722 774/461/715
f 769/456/710 776/469/717 562/468/503
f 770/457/711 777/470/718 776/469/717 769/456/710
f 771/458/712 778/463/719 777/470/718 770/457/711
f 776/469/717 783/209/724 562/471/503
f 777/470/718 784/212/725 783/209/724 776/469/717
f 778/463/719 563/214/504 784/212/725 777/470/718
f 779/464/720 785/216/726 563/214/504 778/463/719
f 780/465/721 564/218/505 785/216/726 779/464/720
f 781/466/722 786/220/727 564/218/505 780/465/721
f 782/467/723 565/222/506 786/220/727 781/466/722
f 787/472/472 789/475/474 790/474/473 788/473/471
f 789/475/474 791/477/476 792/476/475 790/474/473
f 791/477/476 793/479/478 794/478/477 792/476/475
f 793/479/478 795/481/480 796/480/479 794/478/477
f 795/481/480 797/483/482 798/482/481 796/480/479
f 797/483/482 799/485/484 800/484/483 798/482/481
f 799/485/484 801/487/486 802/486/485 800/484/483
f 801/487/486 803/489/488 804/488/487 802/486/485
f 803/489/488 805/491/490 806/490/489 804/488/487
f 805/491/490 807/493/492 808/492/491 806/490/489
f 807/493/492 809/495/494 810/494/493 808/492/491
f 809/495/494 811/497/496 812/496/495 810/494/493
f 811/497/496 813/499/498 814/498/497 812/496/495
f 813/499/498 815/501/500 816/500/499 814/498/497
f 815/501/500 817/503/502 818/502/501 816/500/499
f 817/503/502 819/505/440 820/504/439 818/502/501
f 819/505/440 821/507/442 822/506/441 820/504/439
f 821/507/442 823/509/444 824/508/443 822/506/441
f 823/509/444 825/511/446 826/510/445 824/508/443
f 825/511/446 827/513/448 828/512/447 826/510/445
f 827/513/448 829/515/450 830/514/449 828/512/447
f 829/515/450 831/517/452 832/516/451 830/514/449
f 831/517/452 833/519/454 834/518/453 832/516/451
f 833/519/454 835/521/456 836/520/455 834/518/453
f 835/521/456 837/523/458 838/522/457 836/520/455
f 837/523/458 839/525/460 840/524/459 838/522/457
f 839/525/460 841/527/462 842/526/461 840/524/459
f 841/527/462 843/529/464 844/528/463 842/526/461
f 843/529/464 845/531/466 846/530/465 844/528/463
f 845/531/466 847/533/468 848/532/467 846/530/465
f 790/534/473 792/565/475 794/564/477 796/563/479 798/562/481 800/561/483 802/560/485 804/559/487 806/558/489 808/557/491 810/556/493 812/555/495 814/554/497 816/553/499 818/552/501 820/551/439 822/550/441 824/549/443 826/548/445 828/547/447 830/546/449 832/545/451 834/544/453 836/543/455 838/542/457 840/541/459 842/540/461 844/539/463 846/538/465 848/537/467 850/536/469 788/535/471
f 847/533/468 849/567/470 850/566/469 848/532/467
f 849/567/470 787/569/472 788/568/471 850/566/469
f 787/570/472 849/601/470 847/600/468 845/599/466 843/598/464 841/597/462 839/596/460 837/595/458 835/594/456 833/593/454 831/592/452 829/591/450 827/590/448 825/589/446 823/588/444 821/587/442 819/586/440 817/585/502 815/584/500 813/583/498 811/582/496 809/581/494 807/580/492 805/579/490 803/578/488 801/577/486 799/576/484 797/575/482 795/574/480 793/573/478 791/572/476 789/571/474
f 276/222/217 283/223/224 572/223/513 565/222/506
f 283/223/224 290/225/231 579/225/520 572/223/513
f 290/225/231 297/237/238 586/237/527 579/225/520
f 297/237/238 304/241/245 593/241/534 586/237/527
f 304/241/245 311/252/252 600/252/541 593/241/534
f 311/252/252 318/263/259 607/263/548 600/252/541
f 318/263/259 325/268/266 614/268/555 607/263/548
f 325/268/266 332/279/273 621/279/562 614/268/555
f 332/279/273 339/283/280 628/283/569 621/279/562
f 339/283/280 346/294/287 635/294/576 628/283/569
f 346/294/287 353/298/294 642/298/583 635/294/576
f 353/298/294 360/310/301 649/310/590 642/298/583
f 360/310/301 367/314/308 656/314/597 649/310/590
f 367/314/308 374/325/315 663/325/604 656/314/597
f 374/325/315 381/329/322 670/329/611 663/325/604
f 381/329/322 388/341/329 677/341/618 670/329/611
f 388/341/329 395/345/336 684/345/625 677/341/618
f 395/345/336 402/356/343 691/356/632 684/345/625
f 402/356/343 409/367/350 698/367/639 691/356/632
f 409/367/350 416/371/357 705/371/646 698/367/639
f 416/371/357 423/383/364 712/383/653 705/371/646
f 423/383/364 430/387/371 719/387/660 712/383/653
f 430/387/371 437/398/378 726/398/667 719/387/660
f 437/398/378 444/402/385 733/402/674 726/398/667
f 444/420/385 451/421/392 740/421/681 733/420/674
f 451/421/392 458/425/399 747/425/688 740/421/681
f 458/425/399 465/436/406 754/436/695 747/425/688
f 465/436/406 472/440/413 761/440/702 754/436/695
f 472/440/413 479/451/420 768/451/709 761/440/702
f 479/451/420 486/462/427 775/462/716 768/451/709
f 486/462/427 493/467/434 782/467/723 775/462/716
f 493/467/434 276/222/217 565/222/506 782/467/723
